<svg xmlns="http://www.w3.org/2000/svg"><defs><font id="LineIcons" horiz-adv-x="1024"><font-face units-per-em="1024" ascent="960" descent="-64"/><glyph horiz-adv-x="512"/><glyph unicode="" glyph-name="add-files" d="M875.52 952.832H155.648c-11.264 0-20.48-9.216-20.48-20.48V269.824c0-3.072 1.024-5.12 3.072-7.168L465.92-53.76c2.048-2.048 4.096-3.072 7.168-3.072H875.52c11.264 0 20.48 9.216 20.48 20.48v968.704c0 11.264-9.216 20.48-20.48 20.48zM453.632 29.184L224.256 251.392h225.28c3.072 0 5.12-2.048 5.12-5.12V29.184zM844.8-5.632H504.832v286.72c0 11.264-9.216 20.48-20.48 20.48H186.368v600.064H844.8V-5.632zM329.728 560.64h160.768V399.872c0-14.336 11.264-25.6 25.6-25.6s25.6 11.264 25.6 25.6V560.64h160.768c14.336 0 25.6 11.264 25.6 25.6s-12.288 25.6-26.624 25.6H540.672v160.768c0 14.336-11.264 25.6-25.6 25.6s-25.6-11.264-25.6-25.6V611.84H329.728c-14.336 0-25.6-11.264-25.6-25.6s11.264-25.6 25.6-25.6z"/><glyph unicode="" glyph-name="agenda" d="M815.104 884.224c0 14.336-12.288 26.624-26.624 26.624H235.52c-14.336 0-26.624-12.288-26.624-26.624V113.152c0-14.336 12.288-26.624 26.624-26.624h4.096V4.608c0-14.336 12.288-26.624 26.624-26.624h4.096l50.176 17.408 49.152-17.408h4.096c14.336 0 26.624 12.288 26.624 26.624v81.92h389.12c14.336 0 25.6 11.264 25.6 25.6v772.096zm-51.2-185.344H691.2v160.768h72.704V698.88zm-72.704-51.2h72.704V368.128h-71.68L691.2 647.68zM640 368.128H260.096V647.68H640V368.128zm0 491.52V698.88H260.096v160.768H640zM349.184 39.424l-28.672 10.24-29.696-10.24v47.104h58.368V39.424zm-89.088 98.304v179.2H640v-179.2H260.096zm431.104 0v179.2h71.68v-179.2H691.2z"/><glyph unicode="" glyph-name="alarm-clock" d="M840.704 690.688c9.216 24.576 10.24 49.152 5.12 73.728-8.192 34.816-29.696 65.536-59.392 86.016-20.48 12.288-41.984 19.456-67.584 20.48-10.24 1.024-21.504 0-34.816-3.072h-1.024c-24.576-6.144-45.056-17.408-61.44-32.768-25.6 7.168-52.224 11.264-78.848 13.312v17.408h3.072c8.192 0 15.36 7.168 16.384 16.384 0 9.216-7.168 16.384-16.384 16.384h-67.584c-9.216 0-16.384-7.168-16.384-16.384s7.168-16.384 16.384-16.384h3.072v-16.384c-26.624-2.048-53.248-6.144-78.848-12.288-16.384 14.336-35.84 24.576-59.392 30.72h-1.024c-13.312 2.048-24.576 2.048-34.816 2.048-25.6-1.024-47.104-7.168-67.584-20.48-29.696-20.48-51.2-51.2-59.392-86.016-6.144-23.552-5.12-46.08 2.048-68.608C122.88 622.08 87.04 528.896 87.04 427.52c0-233.472 189.44-422.912 422.912-422.912s422.912 189.44 422.912 422.912c0 99.328-34.816 190.464-92.16 263.168zM694.272 817.664c8.192 2.048 15.36 2.048 21.504 2.048 16.384 0 29.696-4.096 43.008-12.288 19.456-14.336 32.768-33.792 37.888-56.32 1.024-5.12 2.048-9.216 2.048-14.336l-2.048 1.024c-33.792 30.72-72.704 56.32-114.688 75.776 4.096 1.024 7.168 3.072 12.288 4.096zm-427.008-10.24c13.312 7.168 26.624 11.264 43.008 12.288 6.144 0 13.312 0 21.504-2.048 3.072-1.024 6.144-1.024 9.216-2.048-41.984-18.432-79.872-43.008-113.664-72.704 0 3.072 1.024 6.144 2.048 10.24 5.12 21.504 18.432 40.96 37.888 54.272zM509.952 55.808c-204.8 0-371.712 166.912-371.712 371.712s166.912 371.712 371.712 371.712S881.664 632.32 881.664 427.52 714.752 55.808 509.952 55.808zm267.264 354.304H506.88v271.36c0 14.336-11.264 25.6-25.6 25.6s-25.6-11.264-25.6-25.6v-271.36c-14.336 0-25.6-11.264-25.6-25.6s11.264-25.6 25.6-25.6c0-14.336 11.264-25.6 25.6-25.6s25.6 11.264 25.6 25.6h271.36c14.336 0 25.6 11.264 25.6 25.6-1.024 14.336-12.288 25.6-26.624 25.6z"/><glyph unicode="" glyph-name="alarm" d="M828.416 155.136c-6.144 7.168-10.24 19.456-10.24 31.744 0 68.608 0 276.48 1.024 293.888v6.144c0 181.248-113.664 332.8-264.192 360.448-2.048 16.384-10.24 29.696-23.552 37.888-16.384 10.24-35.84 11.264-53.248 2.048-15.36-8.192-25.6-23.552-26.624-39.936-147.456-30.72-258.048-183.296-258.048-362.496V186.88c0-9.216-5.12-20.48-15.36-31.744l-15.36-16.384c-8.192-8.192-10.24-19.456-6.144-28.672 4.096-10.24 14.336-16.384 24.576-16.384h232.448v-10.24c0-60.416 39.936-109.568 88.064-109.568 49.152 0 88.064 48.128 88.064 109.568v10.24L824.32 94.72c13.312 0 26.624 10.24 26.624 27.648v10.24l-22.528 22.528zm-324.608 686.08c1.024 0 1.024-1.024 1.024-3.072v-1.024l-2.048 2.048c0 2.048 1.024 2.048 1.024 2.048zM502.784 23.04c-17.408 0-36.864 24.576-36.864 58.368 0 3.072 0 7.168 1.024 10.24h72.704c0-3.072 1.024-7.168 1.024-10.24-1.024-30.72-18.432-58.368-37.888-58.368zm56.32 119.808H232.448c8.192 14.336 12.288 28.672 12.288 43.008V483.84c0 163.84 105.472 302.08 239.616 315.392l17.408 2.048 22.528-2.048C661.504 788.992 768 651.776 768 486.912v-3.072c-1.024-12.288-1.024-61.44-1.024-296.96 0-15.36 3.072-29.696 9.216-43.008l-217.088-1.024z"/><glyph unicode="" glyph-name="amazon" d="M867.328 156.16c-2.048-1.024-6.144-3.072-11.264-5.12s-9.216-4.096-12.288-5.12c-106.496-40.96-215.04-61.44-324.608-61.44-163.84 0-316.416 40.96-455.68 121.856-6.144 4.096-10.24 4.096-13.312-1.024 0-1.024-1.024-3.072-1.024-5.12 0-3.072 2.048-5.12 5.12-8.192 61.44-55.296 131.072-98.304 208.896-129.024s159.744-46.08 246.784-46.08c56.32 0 114.688 8.192 173.056 23.552 59.392 15.36 112.64 37.888 160.768 66.56 15.36 9.216 28.672 17.408 38.912 25.6 8.192 5.12 9.216 11.264 5.12 18.432-5.12 7.168-11.264 8.192-20.48 5.12zm-343.04 373.76h-1.024c-73.728 0-120.832-34.816-139.264-102.4-9.216-31.744-7.168-59.392 3.072-81.92 11.264-24.576 30.72-40.96 58.368-48.128 4.096-1.024 7.168-1.024 9.216-1.024l4.096-1.024 3.072 1.024 2.048-1.024h5.12c34.816 1.024 64.512 15.36 92.16 43.008l1.024 1.024c12.288 14.336 22.528 27.648 30.72 41.984 8.192 13.312 15.36 27.648 19.456 40.96l4.096 15.36h1.024l19.456 72.704-31.744 9.216c-27.648 5.12-54.272 9.216-80.896 10.24zm24.576-91.136c-2.048-7.168-9.216-19.456-12.288-25.6-6.144-10.24-12.288-20.48-21.504-29.696-13.312-14.336-26.624-20.48-41.984-22.528-2.048 0-5.12 1.024-8.192 1.024h-3.072c-7.168 3.072-10.24 7.168-12.288 11.264l-1.024 2.048c-4.096 7.168-3.072 20.48 1.024 35.84 10.24 38.912 31.744 54.272 75.776 54.272 8.192 0 18.432-1.024 31.744-3.072l-8.192-23.552zm-56.32 195.584c-56.32-7.168-107.52-19.456-146.432-36.864-46.08-18.432-82.944-47.104-108.544-86.016-26.624-37.888-39.936-83.968-39.936-136.192 0-67.584 19.456-118.784 59.392-157.696 39.936-36.864 89.088-55.296 147.456-55.296 35.84 0 68.608 4.096 95.232 12.288 36.864 11.264 73.728 34.816 111.616 72.704 1.024-2.048 2.048-3.072 4.096-5.12 5.12-7.168 9.216-12.288 11.264-15.36 0-1.024 1.024-1.024 1.024-1.024l1.024-2.048c4.096-6.144 10.24-12.288 19.456-21.504 7.168-9.216 15.36-16.384 25.6-25.6l5.12-4.096 6.144-2.048c17.408-6.144 34.816-2.048 47.104 9.216 2.048 2.048 13.312 11.264 25.6 22.528 15.36 13.312 38.912 32.768 67.584 58.368 10.24 7.168 16.384 17.408 16.384 29.696 0 9.216-3.072 18.432-10.24 27.648l-1.024 1.024c-6.144 7.168-11.264 14.336-15.36 19.456-3.072 4.096-6.144 8.192-8.192 11.264-4.096 6.144-9.216 17.408-14.336 30.72-5.12 12.288-7.168 26.624-7.168 45.056v261.12c0 9.216 0 18.432-1.024 28.672-1.024 14.336-2.048 21.504-3.072 26.624l-1.024 6.144c0 2.048-1.024 4.096-2.048 6.144-1.024 5.12-3.072 10.24-5.12 18.432-3.072 13.312-6.144 21.504-8.192 26.624l-2.048 5.12c-3.072 6.144-6.144 11.264-10.24 16.384-2.048 2.048-3.072 5.12-5.12 7.168-7.168 10.24-15.36 18.432-22.528 26.624l-1.024 1.024c-48.128 44.032-116.736 67.584-203.776 67.584h-27.648c-64.512-3.072-124.928-22.528-175.104-54.272-51.2-32.768-82.944-81.92-97.28-149.504-2.048-5.12-3.072-9.216-3.072-13.312v-13.312l9.216-9.216c4.096-4.096 10.24-8.192 18.432-10.24l3.072-1.024 133.12-17.408 9.216 4.096c9.216 4.096 20.48 14.336 24.576 35.84 4.096 18.432 12.288 31.744 26.624 43.008l1.024 1.024c13.312 10.24 29.696 16.384 51.2 19.456h9.216c34.816 0 49.152-13.312 57.344-25.6 8.192-11.264 12.288-39.936 12.288-84.992v-2.048c-34.816-6.144-61.44-8.192-79.872-11.264zM614.4 767.488c-24.576 35.84-62.464 53.248-111.616 53.248h-13.312c-33.792-3.072-63.488-14.336-87.04-32.768-22.528-17.408-37.888-38.912-47.104-65.536l-63.488 8.192c12.288 36.864 31.744 63.488 61.44 81.92 39.936 25.6 89.088 40.96 141.312 44.032h25.6c68.608 0 121.856-16.384 157.696-50.176 5.12-5.12 10.24-10.24 14.336-15.36l6.144-9.216c2.048-2.048 4.096-5.12 5.12-7.168 0-1.024 1.024-2.048 1.024-3.072 1.024-3.072 3.072-7.168 4.096-13.312 2.048-10.24 4.096-18.432 6.144-23.552 0-1.024 0-2.048 1.024-2.048v-1.024c0-2.048 1.024-8.192 2.048-22.528 1.024-8.192 1.024-16.384 1.024-23.552v-261.12c0-26.624 4.096-48.128 11.264-68.608 7.168-19.456 13.312-33.792 22.528-46.08l1.024-1.024c2.048-2.048 4.096-5.12 7.168-9.216 1.024-1.024 2.048-3.072 3.072-4.096-20.48-17.408-36.864-31.744-50.176-43.008-5.12-4.096-9.216-8.192-12.288-10.24-1.024 1.024-2.048 3.072-4.096 4.096l-2.048 2.048-11.264 11.264c-2.048 3.072-3.072 5.12-5.12 7.168-2.048 3.072-5.12 7.168-10.24 13.312l-1.024 1.024c-7.168 10.24-12.288 17.408-14.336 20.48l-37.888 47.104-38.912-43.008c-34.816-36.864-66.56-60.416-96.256-68.608-20.48-6.144-47.104-9.216-76.8-9.216-41.984 0-75.776 12.288-102.4 36.864-26.624 25.6-38.912 60.416-38.912 109.568 0 38.912 9.216 71.68 28.672 99.328 18.432 27.648 45.056 48.128 79.872 62.464s78.848 25.6 130.048 31.744c18.432 2.048 50.176 5.12 94.208 8.192L640 580.096v63.488c-1.024 62.464-8.192 99.328-25.6 123.904zm353.28-553.984c-5.12 6.144-20.48 10.24-45.056 12.288-5.12 1.024-10.24 1.024-16.384 1.024-20.48-1.024-40.96-4.096-62.464-9.216-13.312-3.072-26.624-10.24-39.936-19.456-2.048-2.048-4.096-4.096-5.12-7.168-1.024-1.024-1.024-2.048-1.024-2.048-1.024-1.024 0-2.048 1.024-3.072s3.072-2.048 7.168-2.048c11.264 2.048 24.576 3.072 38.912 5.12 13.312 1.024 23.552 2.048 33.792 2.048 25.6 0 40.96-3.072 47.104-10.24 2.048-3.072 3.072-7.168 3.072-13.312 0-19.456-10.24-53.248-30.72-101.376-2.048-4.096-1.024-7.168 2.048-9.216 1.024-1.024 2.048-1.024 3.072-1.024 2.048 0 5.12 1.024 7.168 3.072 19.456 16.384 33.792 37.888 44.032 64.512s16.384 49.152 16.384 69.632v6.144c0 5.12-1.024 10.24-3.072 14.336z"/><glyph unicode="" glyph-name="amex" d="M980.992 152.064H45.056c-14.336 0-25.6 11.264-25.6 25.6v539.648c0 14.336 11.264 25.6 25.6 25.6h935.936c14.336 0 25.6-11.264 25.6-25.6V178.688c0-14.336-12.288-26.624-25.6-26.624zm-910.336 51.2h884.736v488.448H70.656V203.264zm115.712 184.32h84.992l12.288-48.128h67.584v182.272h4.096l52.224-172.032h37.888l52.224 172.032h4.096V340.48h35.84v222.208h-62.464L424.96 390.656l-50.176 172.032H312.32V354.816l-51.2 207.872h-71.68l-54.272-221.184h35.84l15.36 46.08zm33.792 144.384h16.384l27.648-112.64h-70.656l26.624 112.64zm532.48-190.464h2.048l49.152 82.944 48.128-82.944h38.912l-65.536 108.544 65.536 112.64h-38.912l-48.128-87.04-48.128 87.04h-184.32V341.504H752.64zm-144.384 95.232h83.968v30.72h-83.968v62.464h125.952l48.128-82.944-46.08-74.752H609.28v64.512z"/><glyph unicode="" glyph-name="anchor" d="M894.976 385.536l-125.952 53.248c-10.24 4.096-22.528-1.024-26.624-11.264l-53.248-125.952c-5.12-13.312 1.024-27.648 13.312-33.792 13.312-5.12 27.648 1.024 33.792 13.312l27.648 66.56c10.24-28.672 16.384-59.392 16.384-91.136 0-139.264-107.52-253.952-243.712-267.264V647.68h182.272c14.336 0 25.6 11.264 25.6 25.6 0 14.336-11.264 25.6-25.6 25.6H536.576v51.2c52.224 13.312 89.088 64.512 78.848 121.856-7.168 43.008-41.984 77.824-83.968 84.992C463.872 970.24 404.48 918.016 404.48 852.48c0-50.176 34.816-91.136 80.896-103.424v-51.2H305.152c-14.336 0-25.6-11.264-25.6-25.6 0-14.336 11.264-25.6 25.6-25.6h179.2V-10.752c-135.168 13.312-240.64 128-240.64 266.24 0 31.744 5.12 61.44 15.36 91.136l27.648-66.56c5.12-13.312 20.48-19.456 33.792-13.312 13.312 5.12 19.456 20.48 13.312 33.792L281.6 427.52c-4.096 10.24-16.384 15.36-26.624 11.264l-125.952-53.248c-13.312-5.12-19.456-20.48-13.312-33.792 5.12-13.312 20.48-19.456 33.792-13.312l62.464 26.624c-12.288-33.792-18.432-68.608-18.432-104.448-2.048-168.96 130.048-312.32 297.984-322.56C676.864-73.216 830.464 74.24 830.464 256.512c0 36.864-6.144 72.704-18.432 107.52l62.464-26.624c13.312-5.12 27.648 1.024 33.792 13.312 5.12 14.336-1.024 29.696-13.312 34.816zM455.68 852.48c0 30.72 24.576 55.296 55.296 55.296s55.296-24.576 55.296-55.296-24.576-55.296-55.296-55.296-55.296 25.6-55.296 55.296z"/><glyph unicode="" glyph-name="android" d="M713.728 822.784c-8.192 8.192-16.384 15.36-26.624 23.552l14.336 29.696 1.024 2.048c8.192 21.504-2.048 45.056-23.552 53.248-10.24 4.096-20.48 4.096-30.72 0s-18.432-12.288-22.528-21.504L614.4 886.272c-31.744 11.264-66.56 17.408-102.4 17.408-38.912 0-73.728-6.144-106.496-17.408l-10.24 22.528c-4.096 10.24-12.288 17.408-22.528 21.504-9.216 4.096-20.48 4.096-30.72 0-21.504-8.192-31.744-31.744-23.552-53.248l15.36-31.744c-63.488-49.152-90.112-117.76-94.208-165.888l1.024-493.568c0-14.336 11.264-25.6 25.6-25.6h35.84V49.664c0-17.408 4.096-33.792 13.312-48.128 18.432-29.696 52.224-44.032 84.992-39.936 43.008 6.144 75.776 44.032 75.776 89.088v109.568h71.68V49.664c0-44.032 32.768-82.944 75.776-89.088 4.096-1.024 8.192-1.024 11.264-1.024 20.48 0 40.96 7.168 57.344 21.504C710.656-2.56 721.92 20.992 721.92 46.592v113.664h35.84c14.336 0 25.6 11.264 25.6 25.6v495.616c-4.096 36.864-23.552 93.184-69.632 141.312zM290.816 676.352c4.096 43.008 32.768 102.4 90.112 139.264l18.432 12.288 6.144 3.072c31.744 15.36 67.584 22.528 107.52 22.528 37.888 0 72.704-7.168 103.424-22.528l14.336-7.168 9.216-6.144c13.312-9.216 26.624-19.456 35.84-29.696 35.84-37.888 52.224-81.92 55.296-109.568v-12.288H288.768l2.048 10.24zM732.16 211.456h-35.84c-14.336 0-25.6-11.264-25.6-25.6V46.592c0-10.24-4.096-19.456-12.288-26.624s-17.408-10.24-28.672-8.192c-17.408 2.048-30.72 19.456-30.72 37.888v136.192c0 14.336-11.264 25.6-25.6 25.6H450.56c-14.336 0-25.6-11.264-25.6-25.6V50.688c0-19.456-13.312-35.84-30.72-37.888-10.24-1.024-19.456 1.024-27.648 8.192-7.168 6.144-12.288 19.456-12.288 28.672v136.192c0 14.336-11.264 25.6-25.6 25.6h-35.84v394.24h440.32v-394.24zM128 656.896c-57.344 0-102.4-45.056-102.4-102.4v-215.04c0-57.344 45.056-102.4 102.4-102.4s102.4 45.056 102.4 102.4v215.04c0 57.344-45.056 102.4-102.4 102.4zm51.2-317.44c0-28.672-22.528-51.2-51.2-51.2s-51.2 22.528-51.2 51.2v215.04c0 28.672 22.528 51.2 51.2 51.2s51.2-22.528 51.2-51.2v-215.04zM896 656.896c-57.344 0-102.4-45.056-102.4-102.4v-215.04c0-57.344 45.056-102.4 102.4-102.4s102.4 45.056 102.4 102.4v215.04c0 57.344-45.056 102.4-102.4 102.4zm51.2-317.44c0-28.672-22.528-51.2-51.2-51.2s-51.2 22.528-51.2 51.2v215.04c0 28.672 22.528 51.2 51.2 51.2s51.2-22.528 51.2-51.2v-215.04zM452.608 772.608h-30.72c-5.12 0-10.24-4.096-10.24-10.24v-20.48c0-5.12 4.096-10.24 10.24-10.24h30.72c5.12 0 10.24 4.096 10.24 10.24v20.48c0 6.144-4.096 10.24-10.24 10.24zm143.36 0h-30.72c-5.12 0-10.24-4.096-10.24-10.24v-20.48c0-5.12 4.096-10.24 10.24-10.24h30.72c5.12 0 10.24 4.096 10.24 10.24v20.48c0 6.144-4.096 10.24-10.24 10.24z"/><glyph unicode="" glyph-name="angle-double-down" d="M497.664 332.288c8.192-8.192 20.48-8.192 28.672 0l480.256 480.256c10.24 10.24 10.24 26.624 0 35.84s-26.624 10.24-35.84 0L512 390.656 53.248 849.408c-10.24 10.24-26.624 10.24-35.84 0s-10.24-26.624 0-35.84l480.256-481.28zm473.088 230.4L512 103.936 53.248 562.688c-10.24 10.24-26.624 10.24-35.84 0s-10.24-26.624 0-35.84L497.664 46.592c8.192-8.192 20.48-8.192 28.672 0l480.256 480.256c10.24 10.24 10.24 26.624 0 35.84s-25.6 9.216-35.84 0z"/><glyph unicode="" glyph-name="angle-double-left" d="M395.264 462.336c-8.192-8.192-8.192-20.48 0-28.672L875.52-46.592c10.24-10.24 26.624-10.24 35.84 0s10.24 26.624 0 35.84L453.632 448l458.752 458.752c10.24 10.24 10.24 26.624 0 35.84s-26.624 10.24-35.84 0l-481.28-480.256zm230.4-473.088L166.912 448l458.752 458.752c10.24 10.24 10.24 26.624 0 35.84s-26.624 10.24-35.84 0L109.568 462.336c-8.192-8.192-8.192-20.48 0-28.672L589.824-46.592c10.24-10.24 26.624-10.24 35.84 0 10.24 10.24 10.24 25.6 0 35.84z"/><glyph unicode="" glyph-name="angle-double-right" d="M628.736 434.688c8.192 8.192 8.192 20.48 0 28.672L148.48 943.616c-10.24 10.24-26.624 10.24-35.84 0s-10.24-26.624 0-35.84l457.728-458.752L111.616-9.728c-10.24-10.24-10.24-26.624 0-35.84s26.624-10.24 35.84 0l481.28 480.256zm-230.4 473.088l458.752-458.752L398.336-9.728c-10.24-10.24-10.24-26.624 0-35.84s26.624-10.24 35.84 0l480.256 480.256c8.192 8.192 8.192 20.48 0 28.672L434.176 943.616c-10.24 10.24-26.624 10.24-35.84 0s-9.216-25.6 0-35.84z"/><glyph unicode="" glyph-name="angle-double-up" d="M526.336 565.76c-8.192 8.192-20.48 8.192-28.672 0L17.408 85.504c-10.24-10.24-10.24-26.624 0-35.84s26.624-10.24 35.84 0L512 507.392 970.752 48.64c10.24-10.24 26.624-10.24 35.84 0s10.24 26.624 0 35.84L526.336 565.76zM53.248 335.36L512 794.112 970.752 335.36c10.24-10.24 26.624-10.24 35.84 0s10.24 26.624 0 35.84L526.336 851.456c-8.192 8.192-20.48 8.192-28.672 0L17.408 371.2c-10.24-10.24-10.24-26.624 0-35.84 10.24-10.24 25.6-10.24 35.84 0z"/><glyph unicode="" glyph-name="apartment" d="M437.248 904.704v-86.016h-384c-14.336 0-25.6-11.264-25.6-25.6v-824.32c0-14.336 11.264-25.6 25.6-25.6h918.528c14.336 0 25.6 11.264 25.6 25.6v956.416c0 14.336-12.288 26.624-26.624 25.6l-508.928-20.48c-14.336 0-24.576-11.264-24.576-25.6zM232.448-5.632h-153.6v773.12h355.328V617.984H258.048c-14.336 0-25.6-11.264-25.6-25.6V-5.632zm260.096 0h-64.512v61.44h64.512v-61.44zm142.336 0h-91.136V79.36c0 14.336-11.264 25.6-25.6 25.6H402.432c-14.336 0-25.6-11.264-25.6-25.6V-6.656h-93.184v573.44H634.88V-5.632zm310.272 0H686.08v598.016c0 14.336-11.264 25.6-25.6 25.6H488.448v262.144l456.704 18.432V-5.632zM145.408 671.232h30.72c6.144 0 10.24 4.096 10.24 10.24v30.72c0 6.144-4.096 10.24-10.24 10.24h-30.72c-6.144 0-10.24-4.096-10.24-10.24v-30.72c0-6.144 5.12-10.24 10.24-10.24zm179.2 0h30.72c6.144 0 10.24 4.096 10.24 10.24v30.72c0 6.144-4.096 10.24-10.24 10.24h-30.72c-6.144 0-10.24-4.096-10.24-10.24v-30.72c0-6.144 5.12-10.24 10.24-10.24zm271.36 161.792h-30.72c-6.144 0-10.24-4.096-10.24-10.24v-30.72c0-6.144 4.096-10.24 10.24-10.24h30.72c6.144 0 10.24 4.096 10.24 10.24v30.72c0 5.12-4.096 10.24-10.24 10.24zm156.672 0h-30.72c-6.144 0-10.24-4.096-10.24-10.24v-30.72c0-6.144 4.096-10.24 10.24-10.24h30.72c6.144 0 10.24 4.096 10.24 10.24v30.72c0 5.12-4.096 10.24-10.24 10.24zm135.168 0h-30.72c-6.144 0-10.24-4.096-10.24-10.24v-30.72c0-6.144 4.096-10.24 10.24-10.24h30.72c6.144 0 10.24 4.096 10.24 10.24v30.72c0 5.12-4.096 10.24-10.24 10.24zm-291.84-143.36h-30.72c-6.144 0-10.24-4.096-10.24-10.24v-30.72c0-6.144 4.096-10.24 10.24-10.24h30.72c6.144 0 10.24 4.096 10.24 10.24v30.72c0 5.12-4.096 10.24-10.24 10.24zm156.672 0h-30.72c-6.144 0-10.24-4.096-10.24-10.24v-30.72c0-6.144 4.096-10.24 10.24-10.24h30.72c6.144 0 10.24 4.096 10.24 10.24v30.72c0 5.12-4.096 10.24-10.24 10.24zm135.168 0h-30.72c-6.144 0-10.24-4.096-10.24-10.24v-30.72c0-6.144 4.096-10.24 10.24-10.24h30.72c6.144 0 10.24 4.096 10.24 10.24v30.72c0 5.12-4.096 10.24-10.24 10.24zM752.64 563.712h-30.72c-6.144 0-10.24-4.096-10.24-10.24v-30.72c0-6.144 4.096-10.24 10.24-10.24h30.72c6.144 0 10.24 4.096 10.24 10.24v30.72c0 5.12-4.096 10.24-10.24 10.24zm135.168 0h-30.72c-6.144 0-10.24-4.096-10.24-10.24v-30.72c0-6.144 4.096-10.24 10.24-10.24h30.72c6.144 0 10.24 4.096 10.24 10.24v30.72c0 5.12-4.096 10.24-10.24 10.24zM752.64 451.072h-30.72c-6.144 0-10.24-4.096-10.24-10.24v-30.72c0-6.144 4.096-10.24 10.24-10.24h30.72c6.144 0 10.24 4.096 10.24 10.24v30.72c0 5.12-4.096 10.24-10.24 10.24zm135.168 0h-30.72c-6.144 0-10.24-4.096-10.24-10.24v-30.72c0-6.144 4.096-10.24 10.24-10.24h30.72c6.144 0 10.24 4.096 10.24 10.24v30.72c0 5.12-4.096 10.24-10.24 10.24zM752.64 328.192h-30.72c-6.144 0-10.24-4.096-10.24-10.24v-30.72c0-6.144 4.096-10.24 10.24-10.24h30.72c6.144 0 10.24 4.096 10.24 10.24v30.72c0 5.12-4.096 10.24-10.24 10.24zm135.168 0h-30.72c-6.144 0-10.24-4.096-10.24-10.24v-30.72c0-6.144 4.096-10.24 10.24-10.24h30.72c6.144 0 10.24 4.096 10.24 10.24v30.72c0 5.12-4.096 10.24-10.24 10.24zM752.64 205.312h-30.72c-6.144 0-10.24-4.096-10.24-10.24v-30.72c0-6.144 4.096-10.24 10.24-10.24h30.72c6.144 0 10.24 4.096 10.24 10.24v30.72c0 5.12-4.096 10.24-10.24 10.24zm135.168 0h-30.72c-6.144 0-10.24-4.096-10.24-10.24v-30.72c0-6.144 4.096-10.24 10.24-10.24h30.72c6.144 0 10.24 4.096 10.24 10.24v30.72c0 5.12-4.096 10.24-10.24 10.24zM752.64 82.432h-30.72c-6.144 0-10.24-4.096-10.24-10.24v-30.72c0-6.144 4.096-10.24 10.24-10.24h30.72c6.144 0 10.24 4.096 10.24 10.24v30.72c0 5.12-4.096 10.24-10.24 10.24zm135.168 0h-30.72c-6.144 0-10.24-4.096-10.24-10.24v-30.72c0-6.144 4.096-10.24 10.24-10.24h30.72c6.144 0 10.24 4.096 10.24 10.24v30.72c0 5.12-4.096 10.24-10.24 10.24zM145.408 550.4h30.72c6.144 0 10.24 4.096 10.24 10.24v30.72c0 6.144-4.096 10.24-10.24 10.24h-30.72c-6.144 0-10.24-4.096-10.24-10.24v-30.72c0-6.144 5.12-10.24 10.24-10.24zm0-120.832h30.72c6.144 0 10.24 4.096 10.24 10.24v30.72c0 6.144-4.096 10.24-10.24 10.24h-30.72c-6.144 0-10.24-4.096-10.24-10.24v-30.72c0-6.144 5.12-10.24 10.24-10.24zm0-120.832h30.72c6.144 0 10.24 4.096 10.24 10.24v30.72c0 6.144-4.096 10.24-10.24 10.24h-30.72c-6.144 0-10.24-4.096-10.24-10.24v-30.72c0-6.144 5.12-10.24 10.24-10.24zm0-120.832h30.72c6.144 0 10.24 4.096 10.24 10.24v30.72c0 6.144-4.096 10.24-10.24 10.24h-30.72c-6.144 0-10.24-4.096-10.24-10.24v-30.72c0-6.144 5.12-10.24 10.24-10.24zm0-120.832h30.72c6.144 0 10.24 4.096 10.24 10.24v30.72c0 6.144-4.096 10.24-10.24 10.24h-30.72c-6.144 0-10.24-4.096-10.24-10.24v-30.72c0-6.144 5.12-10.24 10.24-10.24zm241.664 448.512h-30.72c-6.144 0-10.24-4.096-10.24-10.24v-30.72c0-6.144 4.096-10.24 10.24-10.24h30.72c6.144 0 10.24 4.096 10.24 10.24v30.72c0 5.12-4.096 10.24-10.24 10.24zm177.152 0h-30.72c-6.144 0-10.24-4.096-10.24-10.24v-30.72c0-6.144 4.096-10.24 10.24-10.24h30.72c6.144 0 10.24 4.096 10.24 10.24v30.72c0 5.12-5.12 10.24-10.24 10.24zm-177.152-143.36h-30.72c-6.144 0-10.24-4.096-10.24-10.24v-30.72c0-6.144 4.096-10.24 10.24-10.24h30.72c6.144 0 10.24 4.096 10.24 10.24v30.72c0 5.12-4.096 10.24-10.24 10.24zm177.152 0h-30.72c-6.144 0-10.24-4.096-10.24-10.24v-30.72c0-6.144 4.096-10.24 10.24-10.24h30.72c6.144 0 10.24 4.096 10.24 10.24v30.72c0 5.12-5.12 10.24-10.24 10.24zm-177.152-143.36h-30.72c-6.144 0-10.24-4.096-10.24-10.24v-30.72c0-6.144 4.096-10.24 10.24-10.24h30.72c6.144 0 10.24 4.096 10.24 10.24v30.72c0 5.12-4.096 10.24-10.24 10.24zm177.152 0h-30.72c-6.144 0-10.24-4.096-10.24-10.24v-30.72c0-6.144 4.096-10.24 10.24-10.24h30.72c6.144 0 10.24 4.096 10.24 10.24v30.72c0 5.12-5.12 10.24-10.24 10.24z"/><glyph unicode="" glyph-name="apple" d="M497.664 637.44h2.048l10.24 1.024c17.408 2.048 104.448 14.336 164.864 77.824 44.032 47.104 65.536 108.544 61.44 184.32v9.216c0 10.24-4.096 20.48-12.288 26.624s-18.432 9.216-28.672 8.192l-8.192-1.024c-26.624-4.096-214.016-38.912-227.328-258.048v-10.24c0-21.504 17.408-37.888 37.888-37.888zm187.392 253.952C689.152 725.504 546.816 695.808 512 690.688c14.336 159.744 141.312 194.56 173.056 200.704zM869.376 217.6c-70.656 29.696-115.712 97.28-115.712 174.08 0 66.56 33.792 125.952 90.112 160.768l25.6 15.36-19.456 22.528c-30.72 36.864-68.608 61.44-111.616 72.704-68.608 16.384-145.408 0-229.376-50.176-31.744 20.48-148.48 87.04-240.64 26.624h-1.024C249.856 630.272 60.416 519.68 158.72 210.432l1.024-2.048c3.072-7.168 72.704-168.96 152.576-229.376l4.096-3.072c37.888-30.72 87.04-29.696 131.072 0l1.024 1.024c7.168 3.072 43.008 17.408 82.944 17.408 17.408 0 44.032-3.072 66.56-19.456 20.48-14.336 48.128-24.576 74.752-24.576 23.552 0 46.08 8.192 65.536 27.648l1.024 1.024c10.24 8.192 26.624 23.552 52.224 54.272 26.624 31.744 64.512 83.968 90.112 149.504l9.216 23.552-21.504 11.264zM712.704 24.064h-1.024l-9.216-9.216c-26.624-27.648-70.656 0-74.752 3.072-26.624 18.432-59.392 28.672-95.232 28.672-57.344 0-106.496-22.528-106.496-23.552l-6.144-4.096C394.24.512 370.688-.512 350.208 15.872l-4.096 4.096C279.552 68.096 215.04 213.504 208.896 227.84c-89.088 279.552 79.872 364.544 80.896 365.568l6.144 3.072c68.608 46.08 174.08-18.432 186.368-26.624l25.6-17.408 24.576 14.336c71.68 43.008 139.264 59.392 193.536 46.08 24.576-6.144 46.08-18.432 65.536-34.816-56.32-45.056-89.088-112.64-89.088-186.368 0-88.064 48.128-167.936 123.904-209.92-38.912-83.968-96.256-141.312-113.664-157.696z"/><glyph unicode="" glyph-name="archive" d="M932.864 830.976H105.472c-20.48 0-35.84-15.36-35.84-35.84V679.424c0-20.48 15.36-35.84 35.84-35.84h20.48V77.312c0-20.48 15.36-35.84 35.84-35.84H875.52c20.48 0 35.84 15.36 35.84 35.84v566.272h21.504c19.456 0 35.84 16.384 35.84 35.84v115.712c0 20.48-15.36 35.84-35.84 35.84zM860.16 92.672H177.152v550.912H860.16V92.672zm57.344 602.112H120.832v84.992h796.672v-84.992zm-583.68-380.928h369.664c20.48 0 35.84 15.36 35.84 35.84v92.16c0 20.48-15.36 35.84-35.84 35.84H333.824c-19.456 0-35.84-16.384-35.84-35.84v-92.16c0-20.48 15.36-35.84 35.84-35.84zm15.36 112.64h338.944v-61.44H349.184v61.44z"/><glyph unicode="" glyph-name="arrow-down-circle" d="M545.792 196.096V714.24c0 14.336-11.264 25.6-25.6 25.6-14.336 0-25.6-11.264-25.6-25.6V196.096l-77.824 78.848c-10.24 10.24-26.624 10.24-35.84 0-10.24-10.24-10.24-26.624 0-35.84L506.88 114.176c8.192-8.192 20.48-8.192 28.672 0l125.952 124.928c10.24 10.24 10.24 26.624 0 35.84-10.24 10.24-26.624 10.24-35.84 0l-79.872-78.848zm-25.6 694.272c-250.88 0-455.68-204.8-455.68-455.68s204.8-455.68 455.68-455.68 455.68 204.8 455.68 455.68-204.8 455.68-455.68 455.68zm0-860.16c-223.232 0-404.48 181.248-404.48 404.48s181.248 404.48 404.48 404.48 404.48-181.248 404.48-404.48-181.248-404.48-404.48-404.48z"/><glyph unicode="" glyph-name="arrow-down" d="M615.424 162.304L537.6 83.456V837.12c0 14.336-11.264 25.6-25.6 25.6-14.336 0-25.6-11.264-25.6-25.6V83.456l-77.824 78.848c-10.24 10.24-26.624 10.24-35.84 0-10.24-10.24-10.24-26.624 0-35.84L498.688 1.536c8.192-8.192 20.48-8.192 28.672 0l125.952 124.928c10.24 10.24 10.24 26.624 0 35.84-11.264 10.24-27.648 10.24-37.888 0z"/><glyph unicode="" glyph-name="arrow-left-circle" d="M284.672 317.952c10.24 10.24 10.24 26.624 0 35.84l-78.848 77.824h661.504c14.336 0 25.6 11.264 25.6 25.6s-11.264 25.6-25.6 25.6H205.824l78.848 77.824c10.24 10.24 10.24 26.624 0 35.84-10.24 10.24-26.624 10.24-35.84 0L116.736 463.36c-4.096-4.096-4.096-10.24 0-14.336l132.096-133.12c9.216-8.192 25.6-8.192 35.84 2.048zM501.76 958.976C225.28 958.976 0 733.696 0 457.216s225.28-501.76 501.76-501.76 501.76 225.28 501.76 501.76-225.28 501.76-501.76 501.76zm0-953.344C252.928 5.632 51.2 207.36 51.2 456.192s201.728 450.56 450.56 450.56 450.56-201.728 450.56-450.56S750.592 5.632 501.76 5.632z"/><glyph unicode="" glyph-name="arrow-left" d="M916.48 488.96H162.816l78.848 77.824a25.958 25.958 0 0 1 0 36.864 25.958 25.958 0 0 1-36.864 0L79.872 477.696c-8.192-8.192-8.192-20.48 0-28.672L204.8 323.072a25.958 25.958 0 0 1 36.864 0 25.958 25.958 0 0 1 0 36.864l-78.848 77.824H916.48c14.336 0 25.6 11.264 25.6 25.6 0 14.336-11.264 25.6-25.6 25.6z"/><glyph unicode="" glyph-name="arrow-right-circle" d="M732.16 587.264c-10.24-10.24-10.24-26.624 0-35.84l78.848-77.824H149.504c-14.336 0-25.6-11.264-25.6-25.6s11.264-25.6 25.6-25.6h661.504l-78.848-77.824c-10.24-10.24-10.24-26.624 0-35.84 10.24-10.24 26.624-10.24 35.84 0l132.096 133.12c4.096 4.096 4.096 10.24 0 14.336L768 589.312c-9.216 8.192-25.6 8.192-35.84-2.048zM512 949.76C235.52 949.76 10.24 724.48 10.24 448S235.52-53.76 512-53.76 1013.76 171.52 1013.76 448 788.48 949.76 512 949.76zm0-952.32C263.168-2.56 61.44 199.168 61.44 448S263.168 898.56 512 898.56 962.56 696.832 962.56 448 760.832-2.56 512-2.56z"/><glyph unicode="" glyph-name="arrow-right" d="M29.696 431.616H926.72l-78.848-77.824c-10.24-10.24-10.24-26.624 0-35.84 10.24-10.24 26.624-10.24 35.84 0l132.096 133.12c4.096 4.096 4.096 10.24 0 14.336l-132.096 133.12c-10.24 10.24-26.624 10.24-35.84 0-10.24-10.24-10.24-26.624 0-35.84l78.848-77.824H29.696c-14.336 0-25.6-11.264-25.6-25.6 0-16.384 11.264-27.648 25.6-27.648z"/><glyph unicode="" glyph-name="arrow-top-left" d="M365.568 850.432H131.072c-11.264 0-20.48-9.216-20.48-20.48V595.456c0-14.336 11.264-25.6 25.6-25.6 14.336 0 25.6 11.264 25.6 25.6v167.936L864.256 59.904a25.958 25.958 0 0 1 36.864 0 25.958 25.958 0 0 1 0 36.864L197.632 799.232h167.936c14.336 0 25.6 11.264 25.6 25.6 0 14.336-10.24 25.6-25.6 25.6z"/><glyph unicode="" glyph-name="arrow-top-right" d="M638.976 824.832c0-14.336 11.264-25.6 25.6-25.6h167.936L129.024 96.768a25.958 25.958 0 0 1 0-36.864 25.958 25.958 0 0 1 36.864 0l702.464 703.488V595.456c0-14.336 11.264-25.6 25.6-25.6 14.336 0 25.6 11.264 25.6 25.6v234.496c0 11.264-9.216 20.48-20.48 20.48H664.576c-14.336 0-25.6-11.264-25.6-25.6z"/><glyph unicode="" glyph-name="arrow-up-circle" d="M373.76 667.136c10.24-10.24 26.624-10.24 35.84 0l77.824 78.848V84.48c0-14.336 11.264-25.6 25.6-25.6s25.6 11.264 25.6 25.6v661.504l77.824-78.848c10.24-10.24 26.624-10.24 35.84 0 10.24 10.24 10.24 26.624 0 35.84l-133.12 132.096c-4.096 4.096-10.24 4.096-14.336 0l-133.12-132.096c-8.192-9.216-8.192-25.6 2.048-35.84zM512 949.76C235.52 949.76 10.24 724.48 10.24 448S235.52-53.76 512-53.76 1013.76 171.52 1013.76 448 788.48 949.76 512 949.76zm0-952.32C263.168-2.56 61.44 199.168 61.44 448S263.168 898.56 512 898.56 962.56 696.832 962.56 448 760.832-2.56 512-2.56z"/><glyph unicode="" glyph-name="arrow-up" d="M528.384-34.304V862.72l77.824-78.848c10.24-10.24 26.624-10.24 35.84 0 10.24 10.24 10.24 26.624 0 35.84l-133.12 132.096c-4.096 4.096-10.24 4.096-14.336 0l-133.12-132.096c-10.24-10.24-10.24-26.624 0-35.84 10.24-10.24 26.624-10.24 35.84 0l77.824 78.848V-34.304c0-14.336 11.264-25.6 25.6-25.6 16.384 0 27.648 11.264 27.648 25.6z"/><glyph unicode="" glyph-name="arrows-horizontal" d="M1015.808 455.168l-132.096 133.12c-10.24 10.24-26.624 10.24-35.84 0-10.24-10.24-10.24-26.624 0-35.84l78.848-77.824H96.256l78.848 77.824c10.24 9.216 10.24 25.6 0 35.84-9.216 10.24-25.6 10.24-35.84 0L7.168 455.168c-4.096-4.096-4.096-10.24 0-14.336l132.096-133.12c9.216-10.24 25.6-10.24 35.84 0 10.24 9.216 10.24 25.6 0 35.84l-78.848 77.824H926.72l-78.848-77.824c-10.24-10.24-10.24-26.624 0-35.84 10.24-10.24 26.624-10.24 35.84 0l132.096 133.12c4.096 4.096 4.096 10.24 0 14.336z"/><glyph unicode="" glyph-name="arrows-vertical" d="M519.168-55.808l133.12 132.096c10.24 10.24 10.24 26.624 0 35.84-10.24 10.24-26.624 10.24-35.84 0L538.624 33.28v830.464l77.824-78.848c9.216-10.24 25.6-10.24 35.84 0 10.24 9.216 10.24 25.6 0 35.84l-133.12 132.096c-4.096 4.096-10.24 4.096-14.336 0l-133.12-132.096c-10.24-9.216-10.24-25.6 0-35.84 9.216-10.24 25.6-10.24 35.84 0l77.824 78.848V33.28l-77.824 78.848c-10.24 10.24-26.624 10.24-35.84 0-10.24-10.24-10.24-26.624 0-35.84l133.12-132.096c4.096-4.096 10.24-4.096 14.336 0z"/><glyph unicode="" glyph-name="ban" d="M870.4 806.4c-95.232 95.232-222.208 148.48-355.328 148.48H512c-136.192-1.024-263.168-53.248-358.4-148.48S5.12 583.168 5.12 448c0-136.192 52.224-264.192 147.456-359.424s223.232-148.48 358.4-148.48c136.192 0 264.192 52.224 359.424 148.48 96.256 96.256 148.48 223.232 147.456 359.424 2.048 135.168-51.2 262.144-147.456 358.4zM57.344 448c0 121.856 47.104 235.52 133.12 321.536 84.992 84.992 199.68 132.096 322.56 133.12h3.072c111.616 0 217.088-40.96 300.032-115.712L172.032 143.872C97.28 227.84 57.344 334.336 57.344 448zM834.56 125.44C748.544 39.424 633.856-7.68 510.976-7.68c-112.64 0-220.16 40.96-303.104 115.712l644.096 644.096c75.776-83.968 116.736-190.464 115.712-303.104 0-122.88-46.08-237.568-133.12-323.584z"/><glyph unicode="" glyph-name="bar-chart" d="M962.56-12.8v575.488c0 14.336-11.264 25.6-25.6 25.6H771.072c-14.336 0-25.6-11.264-25.6-25.6V-12.8H655.36v677.888c0 14.336-11.264 25.6-25.6 25.6H463.872c-14.336 0-25.6-11.264-25.6-25.6V-12.8H348.16v780.288c0 14.336-11.264 25.6-25.6 25.6H156.672c-14.336 0-25.6-11.264-25.6-25.6V-12.8h-71.68v947.2c0 14.336-12.288 25.6-25.6 25.6-14.336 0-25.6-11.264-25.6-25.6V-64h980.992c14.336 0 25.6 11.264 25.6 25.6 0 14.336-11.264 25.6-25.6 25.6H962.56zm-780.288 0v744.448c0 6.144 4.096 10.24 10.24 10.24h94.208c6.144 0 10.24-4.096 10.24-10.24V-12.8H182.272zm307.2 0v642.048c0 6.144 4.096 10.24 10.24 10.24h94.208c6.144 0 10.24-4.096 10.24-10.24V-12.8H489.472zm307.2 0v539.648c0 6.144 4.096 10.24 10.24 10.24h94.208c6.144 0 10.24-4.096 10.24-10.24V-12.8H796.672z"/><glyph unicode="" glyph-name="basketball" d="M940.032 727.552c-9.216 14.336-19.456 27.648-29.696 40.96-30.72 37.888-66.56 71.68-106.496 99.328-14.336 9.216-28.672 18.432-43.008 26.624-72.704 40.96-157.696 63.488-246.784 63.488s-174.08-22.528-246.784-63.488c-15.36-8.192-29.696-17.408-43.008-26.624-40.96-28.672-77.824-63.488-109.568-102.4-10.24-13.312-20.48-27.648-29.696-41.984C33.792 643.584 4.096 549.376 4.096 448c0-98.304 27.648-189.44 75.776-267.264 9.216-14.336 18.432-28.672 28.672-41.984 32.768-41.984 71.68-79.872 115.712-109.568 14.336-9.216 28.672-18.432 43.008-26.624C339.968-38.4 424.96-60.928 514.048-60.928S687.104-37.376 760.832 2.56c15.36 8.192 29.696 17.408 43.008 26.624C846.848 58.88 883.712 94.72 916.48 135.68c10.24 13.312 20.48 27.648 29.696 41.984 50.176 78.848 78.848 172.032 78.848 271.36-1.024 102.4-31.744 197.632-84.992 278.528zM894.976 704c45.056-66.56 72.704-145.408 76.8-230.4H692.224c2.048 57.344 9.216 112.64 21.504 165.888 63.488 15.36 123.904 36.864 181.248 64.512zM779.264 822.784c30.72-22.528 59.392-48.128 83.968-76.8-43.008-20.48-88.064-36.864-135.168-49.152 14.336 43.008 31.744 84.992 51.2 125.952zm-265.216 84.992c80.896 0 156.672-20.48 222.208-57.344-26.624-53.248-48.128-108.544-64.512-166.912-53.248-10.24-107.52-16.384-163.84-16.384-52.224 0-103.424 5.12-152.576 14.336-16.384 59.392-37.888 115.712-64.512 168.96 66.56 35.84 142.336 57.344 223.232 57.344zM641.024 473.6H386.048c-1.024 52.224-7.168 103.424-17.408 153.6 46.08-7.168 92.16-11.264 140.288-11.264 51.2 0 101.376 4.096 150.528 12.288-10.24-50.176-16.384-101.376-18.432-154.624zm16.384-195.584c-48.128 8.192-98.304 12.288-148.48 12.288-47.104 0-93.184-4.096-138.24-10.24 9.216 46.08 14.336 94.208 15.36 143.36h254.976c1.024-50.176 7.168-98.304 16.384-145.408zm-409.6 544.768c20.48-40.96 37.888-84.992 51.2-129.024-48.128 12.288-94.208 28.672-138.24 49.152 25.6 29.696 54.272 56.32 87.04 79.872zm-117.76-122.88c58.368-27.648 119.808-48.128 184.32-62.464 12.288-53.248 19.456-107.52 20.48-163.84H55.296c4.096 82.944 30.72 160.768 74.752 226.304zm-5.12-496.64C84.992 267.776 59.392 341.504 55.296 422.4h280.576c-2.048-52.224-8.192-103.424-18.432-152.576-67.584-15.36-132.096-36.864-192.512-66.56zm122.88-130.048c-34.816 24.576-66.56 54.272-93.184 88.064 47.104 21.504 96.256 39.936 147.456 52.224-13.312-48.128-31.744-95.232-54.272-140.288zm266.24-84.992c-80.896 0-156.672 20.48-222.208 57.344 28.672 56.32 51.2 116.736 67.584 180.224 49.152 9.216 98.304 13.312 149.504 13.312 55.296 0 108.544-5.12 160.768-15.36 16.384-62.464 38.912-121.856 66.56-178.176C670.72 9.728 593.92-11.776 514.048-11.776zm265.216 84.992c-21.504 44.032-39.936 90.112-54.272 137.216 50.176-13.312 98.304-30.72 144.384-53.248-25.6-30.72-56.32-59.392-90.112-83.968zm120.832 126.976c-59.392 28.672-122.88 52.224-188.416 67.584-11.264 50.176-17.408 102.4-19.456 155.648H972.8c-5.12-82.944-30.72-158.72-72.704-223.232z"/><glyph unicode="" glyph-name="behance" d="M455.68 486.912c13.312 9.216 22.528 20.48 30.72 32.768 16.384 22.528 22.528 51.2 22.528 83.968 0 30.72-5.12 56.32-14.336 77.824-11.264 20.48-25.6 38.912-45.056 51.2-19.456 13.312-39.936 20.48-66.56 27.648-24.576 5.12-50.176 8.192-80.896 8.192H26.624c-9.216 0-16.384-6.144-16.384-16.384v-588.8c0-9.216 6.144-16.384 16.384-16.384H312.32c27.648 0 55.296 3.072 80.896 9.216 27.648 6.144 51.2 17.408 72.704 33.792 22.528 16.384 38.912 35.84 51.2 59.392 13.312 24.576 19.456 53.248 19.456 86.016 0 39.936-9.216 75.776-28.672 104.448-13.312 21.504-31.744 35.84-52.224 47.104zm25.6-216.064c-9.216-17.408-22.528-33.792-39.936-45.056s-36.864-20.48-59.392-27.648c-22.528-6.144-47.104-9.216-70.656-9.216H51.2v539.648h252.928c25.6 0 50.176-2.048 70.656-6.144 19.456-5.12 36.864-11.264 51.2-20.48 13.312-9.216 24.576-20.48 30.72-36.864 8.192-16.384 11.264-35.84 11.264-59.392 0-24.576-5.12-45.056-16.384-61.44s-28.672-30.72-51.2-39.936l-48.128-22.528 51.2-14.336c30.72-9.216 53.248-24.576 69.632-47.104 14.336-22.528 22.528-48.128 22.528-81.92 0-27.648-4.096-50.176-14.336-67.584zM355.328 514.56c19.456 14.336 30.72 36.864 30.72 69.632 0 17.408-3.072 30.72-9.216 44.032-6.144 11.264-16.384 20.48-27.648 27.648-11.264 6.144-22.528 11.264-35.84 13.312-11.264 2.048-22.528 3.072-36.864 3.072H136.192V496.128H286.72c28.672-3.072 51.2 5.12 68.608 18.432zM178.176 628.224h100.352c11.264 0 20.48-2.048 28.672-3.072 8.192-2.048 14.336-3.072 20.48-8.192 5.12-3.072 9.216-6.144 11.264-13.312 3.072-5.12 5.12-13.312 5.12-24.576 0-25.6-9.216-33.792-13.312-36.864-11.264-8.192-25.6-13.312-44.032-13.312H177.152c1.024 1.024 1.024 99.328 1.024 99.328zm198.656-204.8c-20.48 16.384-47.104 22.528-78.848 22.528H138.24v-199.68h20.48c164.864 2.048 173.056 3.072 176.128 3.072 14.336 3.072 27.648 8.192 36.864 14.336 11.264 8.192 20.48 17.408 27.648 30.72 6.144 13.312 9.216 28.672 9.216 47.104 0 38.912-11.264 64.512-31.744 81.92zm-13.312-107.52c-3.072-6.144-8.192-11.264-14.336-16.384s-13.312-6.144-22.528-9.216c-6.144 0-48.128-2.048-148.48-3.072v118.784h119.808c22.528 0 41.984-5.12 55.296-14.336 11.264-9.216 17.408-24.576 17.408-48.128-2.048-11.264-4.096-21.504-7.168-27.648zm498.688 187.392c-17.408 19.456-47.104 30.72-80.896 30.72-22.528 0-39.936-3.072-55.296-11.264-14.336-8.192-25.6-17.408-35.84-28.672-9.216-11.264-16.384-24.576-19.456-36.864-3.072-11.264-5.12-22.528-6.144-32.768l-2.048-20.48h230.4l-2.048 22.528c0 29.696-11.264 57.344-28.672 76.8zM710.656 442.88v2.048c2.048 8.192 6.144 16.384 11.264 22.528 6.144 6.144 13.312 13.312 22.528 17.408 9.216 5.12 20.48 6.144 36.864 6.144 22.528 0 39.936-6.144 50.176-16.384 8.192-8.192 14.336-19.456 17.408-32.768h-138.24zm290.816 7.168c-8.192 32.768-22.528 61.44-39.936 87.04-19.456 25.6-44.032 47.104-72.704 61.44s-64.512 22.528-103.424 22.528c-33.792 0-66.56-6.144-95.232-19.456s-53.248-28.672-73.728-51.2c-20.48-20.48-36.864-47.104-48.128-77.824-11.264-28.672-16.384-61.44-16.384-95.232 0-35.84 5.12-67.584 16.384-97.28 11.264-28.672 27.648-55.296 47.104-77.824 20.48-22.528 45.056-38.912 73.728-50.176s61.44-17.408 97.28-17.408c51.2 0 97.28 13.312 132.096 35.84 36.864 24.576 66.56 64.512 83.968 119.808l2.048 5.12c3.072 11.264-5.12 22.528-16.384 22.528H865.28l-5.12-15.36c-3.072-8.192-11.264-17.408-22.528-25.6-13.312-9.216-28.672-14.336-48.128-14.336-27.648 0-47.104 6.144-61.44 19.456-9.216 9.216-17.408 27.648-20.48 47.104h300.032l2.048 19.456c3.072 34.816-1.024 68.608-8.192 101.376zM665.6 370.176v-20.48c0-38.912 13.312-75.776 33.792-95.232 20.48-20.48 51.2-30.72 89.088-30.72 27.648 0 51.2 6.144 72.704 20.48 14.336 9.216 25.6 20.48 32.768 33.792h58.368c-14.336-32.768-32.768-56.32-56.32-70.656-30.72-19.456-67.584-28.672-111.616-28.672-30.72 0-58.368 5.12-81.92 14.336-24.576 9.216-44.032 22.528-61.44 39.936-16.384 17.408-28.672 38.912-38.912 62.464-9.216 24.576-14.336 53.248-14.336 81.92s5.12 56.32 14.336 80.896c9.216 25.6 22.528 47.104 39.936 62.464 17.408 17.408 38.912 32.768 61.44 41.984 24.576 9.216 50.176 16.384 78.848 16.384 32.768 0 61.44-6.144 83.968-17.408 24.576-13.312 44.032-28.672 58.368-50.176 14.336-20.48 25.6-45.056 33.792-72.704 5.12-20.48 8.192-45.056 8.192-67.584H665.6v-1.024zm-7.168 262.144h243.712c9.216 0 16.384 6.144 16.384 16.384v64.512c0 9.216-6.144 16.384-16.384 16.384H658.432c-9.216 0-16.384-6.144-16.384-16.384v-64.512c1.024-8.192 7.168-16.384 16.384-16.384zm24.576 57.344h195.584V673.28H683.008v16.384z"/><glyph unicode="" glyph-name="bi-cycle" d="M684.032 676.352c54.272 0 98.304 44.032 98.304 98.304s-44.032 98.304-98.304 98.304c-54.272 0-98.304-44.032-98.304-98.304s44.032-98.304 98.304-98.304zm0 145.408c26.624 0 47.104-21.504 47.104-47.104s-21.504-47.104-47.104-47.104-47.104 21.504-47.104 47.104 21.504 47.104 47.104 47.104zM219.136 512.512c-113.664 0-204.8-92.16-204.8-204.8s92.16-204.8 204.8-204.8c113.664 0 204.8 92.16 204.8 204.8s-92.16 204.8-204.8 204.8zm0-359.424c-84.992 0-153.6 69.632-153.6 153.6 0 84.992 69.632 153.6 153.6 153.6s153.6-69.632 153.6-153.6c0-84.992-68.608-153.6-153.6-153.6zm587.776 359.424c-113.664 0-205.824-92.16-205.824-205.824s92.16-204.8 205.824-204.8c113.664 0 204.8 92.16 204.8 204.8s-91.136 205.824-204.8 205.824zm0-359.424c-84.992 0-154.624 69.632-154.624 153.6s69.632 154.624 154.624 154.624 153.6-69.632 153.6-154.624-68.608-153.6-153.6-153.6zM649.216 517.632c8.192-11.264 24.576-13.312 35.84-5.12 11.264 8.192 13.312 24.576 5.12 35.84L580.608 693.76c-9.216 12.288-26.624 13.312-36.864 4.096L380.928 553.472c-11.264-9.216-11.264-26.624-1.024-36.864l96.256-100.352V314.88c0-14.336 11.264-25.6 25.6-25.6 14.336 0 25.6 11.264 25.6 25.6v121.856l-92.16 96.256 121.856 108.544 92.16-123.904z"/><glyph unicode="" glyph-name="bitbucket" d="M508.928 546.304c-22.528 0-43.008-8.192-59.392-24.576-15.36-15.36-23.552-34.816-23.552-57.344 0-45.056 37.888-80.896 81.92-80.896 22.528 0 43.008 8.192 58.368 24.576 15.36 15.36 23.552 34.816 23.552 57.344 2.048 45.056-34.816 80.896-80.896 80.896zm38.912-117.76c-10.24-10.24-23.552-16.384-38.912-16.384-29.696 0-54.272 23.552-54.272 53.248 0 14.336 6.144 26.624 15.36 36.864 10.24 10.24 24.576 16.384 38.912 16.384 29.696 0 54.272-23.552 54.272-53.248 0-13.312-6.144-26.624-15.36-36.864zm280.576-163.84c-9.216 1.024-18.432 0-28.672-7.168l-3.072-2.048c-5.12-3.072-10.24-7.168-15.36-10.24-30.72-18.432-64.512-32.768-104.448-45.056-41.984-13.312-88.064-19.456-135.168-22.528-25.6-1.024-50.176-1.024-74.752 0-23.552 1.024-48.128 5.12-70.656 8.192-40.96 7.168-78.848 18.432-113.664 33.792-26.624 11.264-48.128 23.552-66.56 36.864-3.072 2.048-7.168 5.12-10.24 6.144-9.216 3.072-19.456 2.048-28.672-2.048-8.192-5.12-14.336-13.312-15.36-22.528a38.784 38.784 0 0 1 0-15.36c5.12-25.6 9.216-50.176 14.336-76.8 3.072-19.456 8.192-38.912 11.264-58.368l5.12-21.504c2.048-10.24 7.168-21.504 13.312-30.72S220.16 16.896 230.4 8.704c14.336-11.264 31.744-22.528 53.248-31.744 31.744-14.336 66.56-24.576 108.544-31.744 28.672-5.12 56.32-8.192 82.944-8.192L542.72-64c22.528 1.024 46.08 3.072 69.632 6.144 30.72 5.12 58.368 10.24 84.992 18.432s49.152 18.432 69.632 30.72c14.336 8.192 25.6 17.408 34.816 28.672 13.312 14.336 21.504 29.696 24.576 46.08l15.36 77.824c5.12 25.6 10.24 51.2 15.36 77.824 1.024 5.12 1.024 9.216 0 14.336-3.072 14.336-13.312 25.6-28.672 28.672zM804.864 151.04l-15.36-77.824c-2.048-9.216-7.168-18.432-15.36-26.624C768 38.4 757.76 31.232 746.496 24.064c-17.408-10.24-37.888-18.432-61.44-26.624-24.576-7.168-50.176-13.312-78.848-17.408-22.528-3.072-43.008-5.12-65.536-6.144h-63.488c-26.624 1.024-54.272 3.072-80.896 8.192-38.912 7.168-71.68 16.384-99.328 28.672-17.408 8.192-32.768 16.384-45.056 25.6-7.168 6.144-13.312 11.264-17.408 18.432-3.072 6.144-6.144 11.264-7.168 17.408l-2.048 23.552c-3.072 19.456-8.192 38.912-11.264 58.368-5.12 23.552-9.216 47.104-13.312 70.656 19.456-13.312 40.96-25.6 69.632-37.888 37.888-16.384 78.848-28.672 121.856-36.864 24.576-5.12 49.152-7.168 74.752-9.216 25.6-1.024 53.248-2.048 79.872 0 49.152 2.048 97.28 10.24 143.36 23.552 41.984 13.312 79.872 28.672 112.64 48.128 6.144 3.072 11.264 7.168 17.408 11.264-6.144-23.552-10.24-48.128-15.36-72.704zM793.6 840.192c-6.144 5.12-11.264 8.192-17.408 10.24-10.24 6.144-21.504 9.216-31.744 11.264-19.456 6.144-40.96 10.24-68.608 14.336-26.624 5.12-56.32 7.168-88.064 9.216-14.336 2.048-29.696 2.048-45.056 3.072-41.984 1.024-86.016 0-130.048-2.048-29.696-2.048-55.296-5.12-79.872-9.216-25.6-5.12-46.08-8.192-63.488-14.336-11.264-3.072-21.504-7.168-29.696-11.264-5.12-2.048-11.264-7.168-17.408-13.312-14.336-15.36-14.336-33.792 0-48.128 5.12-5.12 9.216-8.192 14.336-10.24 7.168-3.072 14.336-7.168 21.504-9.216 23.552-9.216 48.128-14.336 69.632-17.408 34.816-6.144 72.704-10.24 114.688-13.312 16.384-1.024 31.744-1.024 48.128-1.024h22.528l19.456 1.024c14.336 0 26.624 1.024 40.96 1.024 26.624 1.024 56.32 3.072 86.016 7.168 26.624 3.072 50.176 7.168 71.68 13.312 11.264 3.072 28.672 7.168 45.056 15.36 5.12 2.048 13.312 6.144 19.456 13.312 11.264 10.24 14.336 21.504 14.336 28.672-2.048 2.048-6.144 12.288-16.384 21.504zM757.76 806.4c-13.312-6.144-26.624-9.216-37.888-13.312-19.456-5.12-40.96-8.192-66.56-11.264-28.672-3.072-56.32-6.144-81.92-7.168-14.336 0-26.624-1.024-40.96-1.024L512 772.608l-21.504 1.024c-15.36 0-31.744 1.024-47.104 1.024-40.96 2.048-77.824 6.144-111.616 11.264-19.456 3.072-40.96 8.192-62.464 16.384-5.12 2.048-10.24 5.12-16.384 8.192-1.024 1.024-2.048 1.024-3.072 2.048 1.024 1.024 3.072 2.048 7.168 5.12 6.144 3.072 14.336 6.144 23.552 9.216 16.384 5.12 33.792 9.216 58.368 13.312 23.552 3.072 49.152 7.168 76.8 9.216 43.008 3.072 86.016 3.072 128 2.048 14.336 0 28.672-1.024 43.008-2.048 30.72-2.048 58.368-5.12 84.992-8.192 25.6-3.072 46.08-8.192 63.488-14.336 8.192-2.048 16.384-5.12 24.576-9.216 3.072-1.024 7.168-3.072 10.24-6.144-5.12-2.048-7.168-3.072-12.288-5.12zM508.928 620.032c-41.984 0-81.92-16.384-112.64-46.08-29.696-29.696-45.056-66.56-45.056-108.544 0-84.992 70.656-153.6 157.696-153.6 41.984 0 80.896 16.384 111.616 45.056 29.696 29.696 46.08 68.608 46.08 109.568 0 83.968-70.656 153.6-157.696 153.6zm86.016-237.568c-22.528-22.528-53.248-33.792-84.992-34.816-66.56 0-119.808 53.248-120.832 116.736 0 30.72 11.264 59.392 33.792 81.92 22.528 23.552 53.248 34.816 86.016 34.816 65.536 0 119.808-53.248 119.808-117.76 0-29.696-11.264-58.368-33.792-80.896zM962.56 813.568c0 2.048-1.024 5.12-2.048 7.168-3.072 13.312-11.264 23.552-22.528 34.816-12.288 12.288-25.6 22.528-46.08 32.768-19.456 10.24-40.96 19.456-68.608 28.672-31.744 10.24-65.536 18.432-102.4 24.576-21.504 3.072-40.96 7.168-61.44 9.216-16.384 2.048-34.816 3.072-53.248 5.12-16.384 1.024-32.768 1.024-48.128 2.048l-21.504 1.024h-56.32l-34.816-2.048c-15.36-1.024-29.696-1.024-45.056-2.048-22.528-1.024-47.104-3.072-73.728-8.192-59.392-8.192-109.568-19.456-152.576-36.864-26.624-9.216-48.128-19.456-66.56-31.744-13.312-8.192-24.576-17.408-32.768-26.624-11.264-13.312-18.432-25.6-21.504-39.936L51.2 806.4v-11.264l7.168-45.056c3.072-24.576 7.168-48.128 11.264-72.704 5.12-30.72 10.24-59.392 15.36-89.088l39.936-225.28c1.024-9.216 5.12-18.432 10.24-26.624 7.168-10.24 15.36-19.456 26.624-29.696 16.384-13.312 34.816-24.576 58.368-36.864 28.672-13.312 59.392-24.576 96.256-32.768 28.672-7.168 57.344-11.264 90.112-16.384 31.744-3.072 64.512-6.144 97.28-6.144h29.696c55.296 2.048 105.472 8.192 154.624 19.456 41.984 10.24 78.848 23.552 111.616 39.936 18.432 9.216 34.816 19.456 48.128 31.744 8.192 7.168 15.36 14.336 21.504 21.504 8.192 10.24 14.336 23.552 16.384 37.888 3.072 18.432 6.144 37.888 9.216 55.296l30.72 176.128c3.072 23.552 8.192 47.104 11.264 70.656 3.072 22.528 7.168 43.008 10.24 65.536 2.048 11.264 3.072 22.528 5.12 33.792l2.048 13.312 1.024 25.6 7.168 8.192zm-38.912-39.936c-1.024-11.264-3.072-22.528-5.12-33.792-3.072-21.504-7.168-43.008-10.24-64.512-3.072-23.552-8.192-47.104-11.264-70.656l-30.72-176.128c-3.072-18.432-7.168-37.888-9.216-56.32-1.024-8.192-5.12-14.336-9.216-19.456s-9.216-10.24-15.36-15.36c-11.264-9.216-25.6-18.432-41.984-26.624-29.696-16.384-64.512-28.672-104.448-37.888-47.104-11.264-95.232-17.408-148.48-18.432-41.984-1.024-82.944 0-121.856 5.12-30.72 3.072-58.368 8.192-86.016 15.36-33.792 8.192-63.488 18.432-89.088 30.72-21.504 9.216-37.888 19.456-51.2 31.744-9.216 7.168-15.36 14.336-19.456 21.504-2.048 5.12-5.12 8.192-5.12 13.312l-39.936 225.28-15.36 89.088c-3.072 24.576-8.192 48.128-11.264 71.68L92.16 796.16c0 1.024 0 2.048-1.024 5.12v1.024c0 1.024 1.024 2.048 1.024 3.072 1.024 7.168 6.144 15.36 13.312 23.552 7.168 7.168 14.336 14.336 25.6 21.504 16.384 10.24 34.816 19.456 59.392 28.672 41.984 15.36 88.064 25.6 145.408 33.792 25.6 3.072 49.152 6.144 70.656 8.192 14.336 1.024 29.696 1.024 43.008 2.048l19.456 1.024 63.488 1.024h3.072l21.504-1.024c16.384-1.024 31.744-1.024 48.128-2.048 19.456-3.072 35.84-4.096 52.224-6.144 18.432-3.072 39.936-6.144 59.392-10.24 33.792-6.144 65.536-13.312 96.256-23.552 24.576-8.192 45.056-16.384 62.464-25.6 16.384-8.192 28.672-16.384 36.864-25.6 7.168-7.168 11.264-14.336 14.336-21.504 0-1.024 1.024-2.048 1.024-3.072v-13.312l-4.096-19.456z"/><glyph unicode="" glyph-name="bitcoin" d="M770.048 449.024c66.56 46.08 107.52 123.904 104.448 205.824C870.4 780.8 760.832 883.2 630.784 883.2h-68.608v35.84a27.533 27.533 0 0 1-27.648 27.648c-13.312-1.024-23.552-12.288-23.552-25.6v-36.864h-74.752v34.816a27.533 27.533 0 0 1-27.648 27.648c-13.312-1.024-23.552-12.288-23.552-25.6v-36.864H174.08c-13.312 0-24.576-11.264-24.576-24.576V857.6c0-13.312 11.264-24.576 24.576-24.576h60.416v-768H174.08c-13.312 0-24.576-11.264-24.576-24.576 0-13.312 11.264-24.576 24.576-24.576h210.944V-23.04a27.533 27.533 0 0 1 27.648-27.648c13.312 1.024 23.552 12.288 23.552 25.6v38.912h74.752V-23.04a27.533 27.533 0 0 1 27.648-27.648c13.312 1.024 23.552 12.288 23.552 25.6v38.912h68.608c130.048 0 238.592 102.4 242.688 228.352 4.096 83.968-36.864 161.792-103.424 206.848zM284.672 832h347.136c102.4 0 188.416-79.872 191.488-179.2 3.072-76.8-43.008-149.504-115.712-179.2H284.672V832zm538.624-587.776c-3.072-98.304-89.088-179.2-191.488-179.2H285.696V422.4h428.032c68.608-30.72 112.64-101.376 109.568-178.176z"/><glyph unicode="" glyph-name="blackboard" d="M989.184 873.984H536.576v49.152c0 14.336-11.264 25.6-25.6 25.6-14.336 0-25.6-11.264-25.6-25.6v-49.152H31.744c-14.336 0-25.6-11.264-25.6-25.6v-491.52c0-14.336 11.264-25.6 25.6-25.6h330.752L192.512-.512c-6.144-12.288-1.024-27.648 11.264-34.816 12.288-6.144 27.648-1.024 34.816 11.264L419.84 331.264h65.536v-358.4c0-14.336 11.264-25.6 25.6-25.6 14.336 0 25.6 11.264 25.6 25.6v358.4h65.536L783.36-23.04c6.144-12.288 21.504-17.408 34.816-11.264C830.464-28.16 835.584-12.8 829.44.512L659.456 331.264h330.752c14.336 0 25.6 11.264 25.6 25.6v491.52c-1.024 14.336-12.288 25.6-26.624 25.6zm-25.6-491.52H57.344v440.32h906.24v-440.32z"/><glyph unicode="" glyph-name="bluetooth" d="M884.736 700.928L486.4 931.328c-17.408 10.24-38.912-2.048-38.912-22.528V488.96L88.064 691.712c-12.288 7.168-27.648 3.072-34.816-9.216-7.168-12.288-3.072-27.648 9.216-34.816L416.768 448 73.728 253.44c-12.288-7.168-16.384-22.528-10.24-34.816 7.168-12.288 22.528-16.384 34.816-10.24l350.208 195.584V-16.896c0-19.456 21.504-31.744 38.912-22.528l398.336 230.4c17.408 10.24 17.408 34.816 0 44.032l-363.52 209.92 363.52 209.92c15.36 11.264 15.36 35.84-1.024 46.08zm-385.024 163.84L820.224 678.4 498.688 493.056v371.712zm0-835.584v371.712l320.512-186.368L499.712 29.184z"/><glyph unicode="" glyph-name="bold" d="M684.032 489.984c78.848 27.648 123.904 101.376 123.904 196.608 0 72.704-22.528 135.168-78.848 179.2-50.176 51.2-117.76 73.728-197.632 73.728H143.36V-44.544h438.272c84.992 0 157.696 27.648 214.016 84.992 56.32 56.32 84.992 123.904 84.992 208.896 0 123.904-72.704 219.136-196.608 240.64zM357.376 749.056h140.288c62.464 0 107.52-45.056 107.52-101.376s-45.056-101.376-107.52-101.376H357.376v202.752zM542.72 146.944H357.376v231.424H542.72c72.704 0 129.024-45.056 129.024-112.64S616.448 146.944 542.72 146.944z"/><glyph unicode="" glyph-name="bolt-alt" d="M842.752 663.04c-9.216 13.312-26.624 18.432-41.984 13.312l-154.624-52.224 95.232 274.432c4.096 10.24 3.072 22.528-2.048 31.744-6.144 10.24-18.432 17.408-31.744 17.408H334.848c-17.408 0-31.744-11.264-35.84-26.624L182.272 488.96c-4.096-12.288 0-26.624 9.216-35.84s23.552-13.312 34.816-9.216l140.288 34.816-75.776-494.592c-3.072-17.408 6.144-32.768 21.504-39.936 5.12-2.048 10.24-3.072 15.36-3.072 11.264 0 22.528 5.12 29.696 15.36l485.376 665.6c9.216 11.264 9.216 28.672 0 40.96zM349.184 32.256l70.656 458.752c2.048 12.288-2.048 24.576-11.264 32.768-7.168 6.144-15.36 9.216-24.576 9.216-3.072 0-6.144 0-9.216-1.024L237.568 499.2l107.52 398.336H686.08l-98.304-283.648c-5.12-13.312-1.024-27.648 8.192-37.888 10.24-10.24 24.576-13.312 37.888-9.216l139.264 47.104L349.184 32.256z"/><glyph unicode="" glyph-name="bolt" d="M353.28-61.952c-5.12 0-11.264 1.024-16.384 4.096-14.336 8.192-20.48 25.6-15.36 39.936l146.432 418.816H261.12c-12.288 0-23.552 6.144-30.72 16.384s-8.192 24.576-3.072 35.84l1.024 2.048 261.12 485.376c8.192 14.336 24.576 20.48 39.936 15.36s24.576-20.48 21.504-35.84l-45.056-317.44 265.216 3.072c14.336 0 26.624-7.168 32.768-20.48 6.144-12.288 5.12-27.648-3.072-38.912L379.904-48.64c-6.144-8.192-16.384-13.312-26.624-13.312zm-15.36 43.008zm-53.248 471.04h205.824c11.264 0 22.528-6.144 29.696-15.36s8.192-21.504 4.096-32.768L413.696 88.576l329.728 465.92-254.976-3.072c-10.24 0-20.48 4.096-27.648 12.288s-10.24 18.432-8.192 28.672l32.768 233.472-200.704-373.76zm475.136 124.928zM499.712 927.232z"/><glyph unicode="" glyph-name="book" d="M694.272 137.728H329.728c-17.408 0-30.72-12.288-30.72-30.72v-15.36c0-17.408 12.288-30.72 30.72-30.72h365.568c17.408 0 30.72 15.36 30.72 30.72v15.36c-1.024 18.432-14.336 30.72-31.744 30.72zm134.144 631.808H286.72c-35.84 0-64.512 31.744-59.392 67.584 4.096 30.72 30.72 52.224 61.44 52.224h534.528c14.336 0 25.6 11.264 25.6 25.6s-11.264 25.6-25.6 25.6H286.72c-61.44 0-111.616-50.176-111.616-111.616V64c0-59.392 48.128-108.544 108.544-108.544h544.768c11.264 0 20.48 9.216 20.48 20.48v773.12c0 11.264-9.216 20.48-20.48 20.48zM797.696 7.68H283.648c-31.744 0-57.344 25.6-57.344 57.344v670.72c17.408-11.264 37.888-17.408 60.416-17.408h510.976V7.68zM284.672 578.048c0-27.648 22.528-50.176 50.176-50.176h353.28c27.648 0 50.176 22.528 50.176 50.176v56.32c0 27.648-22.528 50.176-50.176 50.176h-353.28c-27.648 0-50.176-22.528-50.176-50.176v-56.32zm403.456 56.32v-56.32l-352.256-1.024-1.024 56.32 353.28 1.024z"/><glyph unicode="" glyph-name="bookmark-alt" d="M532.48 751.104v158.72c0 18.432-15.36 33.792-33.792 33.792H148.48c-18.432 0-33.792-15.36-33.792-33.792V750.08H20.48C9.216 750.08 0 740.864 0 729.6V-41.472c0-11.264 9.216-20.48 20.48-20.48h983.04c11.264 0 20.48 9.216 20.48 20.48v772.096c0 11.264-9.216 20.48-20.48 20.48H532.48zM165.888 892.416H481.28v-634.88L323.584 469.504 165.888 258.56v633.856zM971.776-9.728H52.224v709.632h62.464V205.312c0-14.336 9.216-27.648 23.552-31.744 3.072-1.024 7.168-2.048 10.24-2.048 10.24 0 20.48 5.12 27.648 14.336l147.456 198.656 147.456-199.68c8.192-11.264 23.552-16.384 37.888-11.264 14.336 4.096 23.552 17.408 23.552 31.744v494.592h439.296V-9.728z"/><glyph unicode="" glyph-name="bookmark" d="M302.08-40.448c-4.096 0-7.168 1.024-11.264 2.048-14.336 4.096-24.576 18.432-24.576 33.792v902.144c0 20.48 15.36 35.84 35.84 35.84h443.392c20.48 0 35.84-15.36 35.84-35.84V-4.608c0-15.36-10.24-28.672-25.6-33.792s-30.72 0-39.936 12.288L523.264 236.032 330.752-26.112c-7.168-9.216-17.408-14.336-28.672-14.336zm221.184 362.496L730.112 41.472v839.68H317.44V41.472l205.824 280.576z"/><glyph unicode="" glyph-name="briefcase" d="M670.72 671.232v111.616c0 14.336-11.264 25.6-25.6 25.6H381.952c-14.336 0-25.6-11.264-25.6-25.6V671.232H26.624c-14.336 0-25.6-11.264-25.6-25.6v-532.48c0-14.336 11.264-25.6 25.6-25.6h972.8c14.336 0 25.6 11.264 25.6 25.6v532.48c0 14.336-11.264 25.6-25.6 25.6H670.72zm-263.168 86.016H619.52v-86.016H407.552v86.016zm566.272-137.216v-81.92l-427.008-62.464v13.312h-68.608v-14.336L52.224 538.112v81.92h921.6zm-921.6-481.28v347.136L479.232 422.4v-6.144c0-6.144 4.096-10.24 10.24-10.24H537.6c6.144 0 10.24 4.096 10.24 10.24v7.168l427.008 62.464V138.752H52.224z"/><glyph unicode="" glyph-name="brush-alt" d="M1012.736 849.408L998.4 863.744c-7.168 7.168-16.384 11.264-25.6 13.312-12.288 2.048-24.576-1.024-32.768-9.216L262.144 252.416c-7.168-5.12-11.264-12.288-13.312-19.456-6.144 1.024-13.312 2.048-19.456 2.048-17.408 0-30.72-3.072-40.96-10.24-7.168-5.12-20.48-17.408-17.408-45.056 0 0 0-2.048-4.096-7.168-28.672-29.696-56.32-44.032-84.992-45.056l-76.8-2.048 62.464-44.032c35.84-25.6 57.344-38.912 105.472-54.272 14.336-4.096 38.912-8.192 64.512-8.192 48.128 0 104.448 11.264 125.952 46.08v1.024c7.168 13.312 9.216 26.624 7.168 39.936 8.192 1.024 16.384 5.12 22.528 11.264l619.52 680.96c13.312 16.384 9.216 37.888 0 51.2zM320.512 91.648c-12.288-19.456-90.112-28.672-132.096-15.36-17.408 5.12-30.72 10.24-41.984 16.384 20.48 10.24 39.936 25.6 59.392 45.056l1.024 1.024c15.36 18.432 17.408 34.816 16.384 45.056h7.168c23.552 0 46.08-12.288 62.464-31.744 27.648-35.84 30.72-55.296 27.648-60.416zm45.056 69.632l-60.416 60.416 661.504 601.088L365.568 161.28z"/><glyph unicode="" glyph-name="brush" d="M998.4 556.544L620.544 934.4c-8.192 8.192-20.48 8.192-28.672 0L271.36 613.888c-63.488-63.488-63.488-167.936 0-231.424l26.624-26.624L45.056 102.912a85.909 85.909 0 0 1 0-121.856c16.384-16.384 37.888-25.6 60.416-25.6s45.056 9.216 60.416 25.6l252.928 252.928 26.624-26.624c31.744-31.744 73.728-48.128 115.712-48.128s83.968 16.384 115.712 48.128l320.512 320.512c9.216 8.192 9.216 20.48 1.024 28.672zm-119.808 47.104c-2.048-1.024-3.072-2.048-5.12-4.096l-97.28-97.28c-1.024-1.024-5.12 0-9.216 3.072-3.072 3.072-4.096 7.168-4.096 9.216l54.272 54.272c14.336 14.336 19.456 34.816 14.336 54.272-7.168 26.624-32.768 51.2-59.392 58.368-11.264 3.072-21.504 3.072-31.744 0-13.312-4.096-21.504-12.288-27.648-18.432l-5.12-5.12c-1.024 0-5.12 1.024-8.192 4.096s-4.096 7.168-4.096 9.216l58.368 58.368 124.928-125.952zM130.048 16.896c-13.312-13.312-35.84-13.312-49.152 0-13.312 13.312-13.312 35.84 0 49.152l252.928 252.928 49.152-49.152L130.048 16.896zm512 226.304a111.867 111.867 0 0 0-158.72 0l-59.392 59.392-57.344 57.344-59.392 59.392a111.867 111.867 0 0 0 0 158.72l33.792 33.792L675.84 276.992 642.048 243.2zm69.632 70.656L376.832 648.704l27.648 27.648 334.848-334.848-27.648-27.648zm64.512 63.488L441.344 712.192l164.864 164.864L717.824 765.44l-58.368-58.368c-21.504-21.504-19.456-57.344 4.096-80.896 16.384-16.384 39.936-23.552 59.392-17.408 13.312 4.096 21.504 12.288 26.624 18.432 2.048 2.048 4.096 5.12 5.12 5.12h5.12c8.192-2.048 20.48-12.288 22.528-22.528 1.024-3.072 0-3.072-1.024-5.12l-55.296-55.296c-20.48-20.48-18.432-57.344 4.096-80.896 22.528-22.528 57.344-24.576 79.872-5.12h1.024l94.208 94.208c4.096 4.096 11.264 5.12 16.384 2.048 0 0 1.024 0 1.024-1.024l18.432-18.432-164.864-162.816zm-348.16 68.608c0-22.056-17.88-39.936-39.936-39.936s-39.936 17.88-39.936 39.936 17.88 39.936 39.936 39.936 39.936-17.88 39.936-39.936zm121.856-121.856c0-22.056-17.88-39.936-39.936-39.936s-39.936 17.88-39.936 39.936 17.88 39.936 39.936 39.936 39.936-17.88 39.936-39.936zM137.216 47.616c0-13.573-11.003-24.576-24.576-24.576S88.064 34.043 88.064 47.616s11.003 24.576 24.576 24.576 24.576-11.003 24.576-24.576z"/><glyph unicode="" glyph-name="bubble" d="M1009.664 755.2c-3.072 56.32-48.128 99.328-102.4 99.328h-793.6c-55.296 0-102.4-47.104-102.4-103.424V324.096c0-57.344 46.08-103.424 103.424-103.424H128c4.096 0 8.192-4.096 8.192-8.192V79.36c0-15.36 8.192-28.672 21.504-34.816l2.048-1.024 3.072-1.024c4.096-1.024 9.216-2.048 12.288-2.048 10.24 0 18.432 3.072 25.6 10.24l166.912 163.84c4.096 4.096 9.216 6.144 15.36 6.144h522.24c55.296 0 102.4 47.104 102.4 103.424v430.08l2.048 1.024zm-51.2-430.08c0-27.648-23.552-52.224-51.2-52.224h-522.24c-19.456 0-37.888-7.168-51.2-20.48L188.416 110.08v104.448c0 32.768-26.624 59.392-59.392 59.392h-13.312c-28.672 0-52.224 23.552-52.224 52.224v427.008c0 27.648 23.552 52.224 51.2 52.224h793.6c26.624 0 49.152-22.528 51.2-50.176V325.12z"/><glyph unicode="" glyph-name="bug" d="M333.824 742.912h356.352c15.36 0 26.624 12.288 25.6 27.648l-1.024 15.36c-4.096 77.824-71.68 140.288-149.504 140.288H459.776c-77.824-1.024-142.336-61.44-150.528-140.288l-1.024-16.384c-1.024-14.336 10.24-26.624 25.6-26.624zm125.952 132.096h104.448c48.128 0 89.088-35.84 97.28-80.896H361.472c11.264 46.08 51.2 79.872 98.304 80.896zm474.112-485.376H813.056v40.96c0 55.296-15.36 106.496-43.008 150.528l86.016 86.016c10.24 10.24 10.24 26.624 0 35.84-10.24 10.24-26.624 10.24-35.84 0l-80.896-80.896c-52.224 58.368-128 94.208-212.992 94.208h-27.648c-82.944 0-156.672-34.816-208.896-91.136l-81.92 81.92c-10.24 10.24-26.624 10.24-35.84 0s-10.24-26.624 0-35.84l86.016-86.016c-28.672-45.056-46.08-98.304-46.08-154.624v-40.96H91.136c-14.336 0-25.6-11.264-25.6-25.6 0-14.336 11.264-25.6 25.6-25.6h120.832v-80.896c0-47.104 11.264-91.136 31.744-130.048L158.72 42.496c-10.24-10.24-10.24-26.624 0-35.84 10.24-10.24 26.624-10.24 35.84 0l76.8 76.8C323.584 15.872 406.528-28.16 498.688-28.16h27.648c94.208 0 178.176 45.056 230.4 115.712l80.896-80.896c10.24-10.24 26.624-10.24 35.84 0s10.24 26.624 0 35.84l-90.112 90.112c18.432 37.888 29.696 80.896 29.696 125.952v80.896h120.832c14.336 0 25.6 11.264 25.6 25.6 0 12.288-12.288 24.576-25.6 24.576zm-172.032-133.12c0-130.048-105.472-235.52-235.52-235.52h-27.648c-130.048 0-235.52 105.472-235.52 235.52v174.08c0 130.048 105.472 235.52 235.52 235.52h27.648c130.048 0 235.52-105.472 235.52-235.52v-174.08z"/><glyph unicode="" glyph-name="bulb" d="M762.88 851.456c-74.752 70.656-172.032 105.472-274.432 99.328C299.008 939.52 149.504 780.8 146.432 590.336c-2.048-129.024 63.488-248.832 174.08-317.44V57.856c0-62.464 51.2-112.64 112.64-112.64h156.672c62.464 0 112.64 51.2 112.64 112.64v215.04c108.544 66.56 175.104 184.32 175.104 312.32 0 101.376-40.96 196.608-114.688 266.24zM589.824 4.608H433.152c-29.696 0-53.248 23.552-53.248 53.248v202.752h264.192V57.856C643.072 28.16 619.52 4.608 589.824 4.608zM665.6 320H542.72v249.856l78.848 78.848c11.264 11.264 11.264 30.72 0 41.984-11.264 11.264-30.72 11.264-41.984 0l-66.56-66.56-66.56 66.56c-11.264 11.264-30.72 11.264-41.984 0-11.264-11.264-11.264-30.72 0-41.984l78.848-78.848v-250.88H358.4c-96.256 56.32-154.624 158.72-152.576 269.312 2.048 159.744 128 291.84 286.72 301.056 86.016 5.12 167.936-24.576 230.4-82.944S819.2 669.184 819.2 583.168C818.176 475.648 759.808 375.296 665.6 320z"/><glyph unicode="" glyph-name="bullhorn" d="M886.784 949.76c-57.344 7.168-112.64-22.528-139.264-71.68l-466.944-79.872H81.92c-40.96 0-71.68-30.72-71.68-71.68v-358.4c0-40.96 30.72-71.68 71.68-71.68h4.096L128-6.656v-2.048c8.192-34.816 36.864-59.392 69.632-59.392h60.416c20.48 0 40.96 9.216 55.296 25.6l1.024 1.024c12.288 15.36 17.408 33.792 15.36 52.224l-39.936 279.552 454.656-77.824c27.648-47.104 81.92-75.776 138.24-71.68 74.752 7.168 131.072 71.68 131.072 150.528V801.28c0 76.8-54.272 140.288-126.976 148.48zm-578.56-198.656l431.104 73.728V264.704l-431.104 73.728v412.672zM81.92 346.624c-12.288 0-20.48 7.168-20.48 20.48v358.4c0 12.288 7.168 20.48 20.48 20.48h175.104v-399.36H81.92zM273.408-10.752c-4.096-5.12-10.24-7.168-15.36-7.168h-60.416c-9.216 0-16.384 7.168-19.456 18.432l-40.96 294.912h98.304l41.984-291.84c1.024-3.072 1.024-8.192-4.096-14.336zm689.152 302.08c0-52.224-36.864-94.208-84.992-99.328-33.792-2.048-68.608 15.36-87.04 43.008v614.4c16.384 33.792 52.224 54.272 90.112 49.152 47.104-5.12 81.92-47.104 81.92-97.28V291.328z"/><glyph unicode="" glyph-name="bus" d="M964.608 859.648H880.64v36.864c0 14.336-11.264 25.6-25.6 25.6H168.96c-14.336 0-25.6-11.264-25.6-25.6v-37.888H59.392c-14.336 0-25.6-11.264-25.6-25.6V677.376c0-14.336 11.264-25.6 25.6-25.6h83.968V137.728c0-14.336 11.264-25.6 25.6-25.6h40.96V57.856c0-44.032 32.768-81.92 76.8-84.992 48.128-3.072 87.04 34.816 87.04 81.92v57.344h276.48V57.856c0-44.032 32.768-81.92 76.8-84.992 48.128-3.072 87.04 34.816 87.04 81.92v57.344h40.96c14.336 0 25.6 11.264 25.6 25.6V652.8h83.968c14.336 0 25.6 11.264 25.6 25.6v155.648c0 13.312-12.288 25.6-25.6 25.6zM194.56 870.912h634.88V740.864H194.56v130.048zM130.048 704H84.992v104.448h44.032V704zm64.512-13.312H486.4V448H194.56v242.688zm128-634.88c0-17.408-13.312-30.72-30.72-30.72s-30.72 13.312-30.72 30.72v57.344h61.44V55.808zm440.32 0c0-17.408-13.312-30.72-30.72-30.72s-30.72 13.312-30.72 30.72v57.344h61.44V55.808zm66.56 108.544H194.56V396.8h634.88V164.352zM537.6 448v242.688h291.84V448H537.6zm401.408 256h-44.032v104.448h44.032V704zM310.272 186.88c51.2 0 92.16 40.96 92.16 92.16s-40.96 92.16-92.16 92.16-92.16-40.96-92.16-92.16 40.96-92.16 92.16-92.16zm0 133.12c22.528 0 40.96-18.432 40.96-40.96s-18.432-40.96-40.96-40.96-40.96 18.432-40.96 40.96S286.72 320 310.272 320zm409.6-133.12c51.2 0 92.16 40.96 92.16 92.16s-40.96 92.16-92.16 92.16-92.16-40.96-92.16-92.16 40.96-92.16 92.16-92.16zm0 133.12c22.528 0 40.96-18.432 40.96-40.96s-18.432-40.96-40.96-40.96-40.96 18.432-40.96 40.96S696.32 320 719.872 320zm-171.008-15.36h-68.608c-14.336 0-25.6-11.264-25.6-25.6 0-14.336 11.264-25.6 25.6-25.6h68.608c14.336 0 25.6 11.264 25.6 25.6 0 13.312-11.264 25.6-25.6 25.6zM397.312 776.704h219.136c15.36 0 28.672 13.312 28.672 28.672 0 15.36-13.312 28.672-28.672 28.672H397.312c-15.36 0-28.672-13.312-28.672-28.672 0-16.384 13.312-28.672 28.672-28.672z"/><glyph unicode="" glyph-name="calendar" d="M137.216 449.024h9.216c10.24 0 17.408 7.168 17.408 17.408v9.216c0 10.24-7.168 17.408-17.408 17.408h-9.216c-10.24 0-17.408-7.168-17.408-17.408v-9.216c0-11.264 9.216-17.408 17.408-17.408zm109.568 0H256c10.24 0 17.408 7.168 17.408 17.408v9.216c0 10.24-7.168 17.408-17.408 17.408h-9.216c-10.24 0-17.408-7.168-17.408-17.408v-9.216c-1.024-11.264 6.144-17.408 17.408-17.408zm106.496 0h9.216c10.24 0 17.408 7.168 17.408 17.408v9.216c0 10.24-7.168 17.408-17.408 17.408h-9.216c-10.24 0-17.408-7.168-17.408-17.408v-9.216c0-11.264 7.168-17.408 17.408-17.408zm108.544 0h9.216c10.24 0 17.408 7.168 17.408 17.408v9.216c0 10.24-7.168 17.408-17.408 17.408h-9.216c-10.24 0-17.408-7.168-17.408-17.408v-9.216c0-11.264 8.192-17.408 17.408-17.408zM137.216 335.36h9.216c10.24 0 17.408 7.168 17.408 17.408v9.216c0 10.24-7.168 17.408-17.408 17.408h-9.216c-10.24 0-17.408-7.168-17.408-17.408v-9.216c0-11.264 9.216-17.408 17.408-17.408zm109.568 0H256c10.24 0 17.408 7.168 17.408 17.408v9.216c0 10.24-7.168 17.408-17.408 17.408h-9.216c-10.24 0-17.408-7.168-17.408-17.408v-9.216c-1.024-11.264 6.144-17.408 17.408-17.408zm106.496 0h9.216c10.24 0 17.408 7.168 17.408 17.408v9.216c0 10.24-7.168 17.408-17.408 17.408h-9.216c-10.24 0-17.408-7.168-17.408-17.408v-9.216c0-11.264 7.168-17.408 17.408-17.408zm108.544 0h9.216c10.24 0 17.408 7.168 17.408 17.408v9.216c0 10.24-7.168 17.408-17.408 17.408h-9.216c-10.24 0-17.408-7.168-17.408-17.408v-9.216c0-11.264 8.192-17.408 17.408-17.408zM137.216 226.816h9.216c10.24 0 17.408 7.168 17.408 17.408v9.216c0 10.24-7.168 17.408-17.408 17.408h-9.216c-10.24 0-17.408-7.168-17.408-17.408v-9.216c0-10.24 9.216-17.408 17.408-17.408zm109.568 0H256c10.24 0 17.408 7.168 17.408 17.408v9.216c0 10.24-7.168 17.408-17.408 17.408h-9.216c-10.24 0-17.408-7.168-17.408-17.408v-9.216c-1.024-10.24 6.144-17.408 17.408-17.408zm106.496 0h9.216c10.24 0 17.408 7.168 17.408 17.408v9.216c0 10.24-7.168 17.408-17.408 17.408h-9.216c-10.24 0-17.408-7.168-17.408-17.408v-9.216c0-10.24 7.168-17.408 17.408-17.408zm108.544 0h9.216c10.24 0 17.408 7.168 17.408 17.408v9.216c0 10.24-7.168 17.408-17.408 17.408h-9.216c-10.24 0-17.408-7.168-17.408-17.408v-9.216c0-10.24 8.192-17.408 17.408-17.408zM137.216 113.152h9.216c10.24 0 17.408 7.168 17.408 17.408v9.216c0 10.24-7.168 17.408-17.408 17.408h-9.216c-10.24 0-17.408-7.168-17.408-17.408v-9.216c0-10.24 9.216-17.408 17.408-17.408zm109.568 0H256c10.24 0 17.408 7.168 17.408 17.408v9.216c0 9.216-7.168 17.408-17.408 17.408h-9.216c-10.24 0-17.408-7.168-17.408-17.408v-9.216c-1.024-10.24 6.144-17.408 17.408-17.408zm117.76 44.032h-9.216c-10.24 0-17.408-7.168-17.408-17.408v-9.216c0-10.24 7.168-17.408 17.408-17.408h9.216c10.24 0 17.408 7.168 17.408 17.408v9.216c1.024 8.192-8.192 17.408-17.408 17.408zm109.568 0h-9.216c-10.24 0-17.408-7.168-17.408-17.408v-9.216c0-10.24 7.168-17.408 17.408-17.408h9.216c10.24 0 17.408 7.168 17.408 17.408v9.216c0 8.192-9.216 17.408-17.408 17.408zm96.256 291.84h9.216c10.24 0 17.408 7.168 17.408 17.408v9.216c0 10.24-7.168 17.408-17.408 17.408h-9.216c-10.24 0-17.408-7.168-17.408-17.408v-9.216c0-11.264 7.168-17.408 17.408-17.408zm110.592 0h9.216c10.24 0 17.408 7.168 17.408 17.408v9.216c0 10.24-7.168 17.408-17.408 17.408h-9.216c-10.24 0-17.408-7.168-17.408-17.408v-9.216c-2.048-11.264 6.144-17.408 17.408-17.408zm105.472 0h9.216c10.24 0 17.408 7.168 17.408 17.408v9.216c0 10.24-7.168 17.408-17.408 17.408h-9.216c-10.24 0-17.408-7.168-17.408-17.408v-9.216c0-11.264 8.192-17.408 17.408-17.408zm108.544 0h9.216c10.24 0 17.408 7.168 17.408 17.408v9.216c0 10.24-7.168 17.408-17.408 17.408h-9.216c-10.24 0-17.408-7.168-17.408-17.408v-9.216c0-11.264 7.168-17.408 17.408-17.408zM570.368 335.36h9.216c10.24 0 17.408 7.168 17.408 17.408v9.216c0 10.24-7.168 17.408-17.408 17.408h-9.216c-10.24 0-17.408-7.168-17.408-17.408v-9.216c0-11.264 7.168-17.408 17.408-17.408zm110.592 0h9.216c10.24 0 17.408 7.168 17.408 17.408v9.216c0 10.24-7.168 17.408-17.408 17.408h-9.216c-10.24 0-17.408-7.168-17.408-17.408v-9.216c-2.048-11.264 6.144-17.408 17.408-17.408zm105.472 0h9.216c10.24 0 17.408 7.168 17.408 17.408v9.216c0 10.24-7.168 17.408-17.408 17.408h-9.216c-10.24 0-17.408-7.168-17.408-17.408v-9.216c0-11.264 8.192-17.408 17.408-17.408zm108.544 0h9.216c10.24 0 17.408 7.168 17.408 17.408v9.216c0 10.24-7.168 17.408-17.408 17.408h-9.216c-10.24 0-17.408-7.168-17.408-17.408v-9.216c0-11.264 7.168-17.408 17.408-17.408zM570.368 226.816h9.216c10.24 0 17.408 7.168 17.408 17.408v9.216c0 10.24-7.168 17.408-17.408 17.408h-9.216c-10.24 0-17.408-7.168-17.408-17.408v-9.216c0-10.24 7.168-17.408 17.408-17.408zm110.592 0h9.216c10.24 0 17.408 7.168 17.408 17.408v9.216c0 10.24-7.168 17.408-17.408 17.408h-9.216c-10.24 0-17.408-7.168-17.408-17.408v-9.216c-2.048-10.24 6.144-17.408 17.408-17.408zm105.472 0h9.216c10.24 0 17.408 7.168 17.408 17.408v9.216c0 10.24-7.168 17.408-17.408 17.408h-9.216c-10.24 0-17.408-7.168-17.408-17.408v-9.216c0-10.24 8.192-17.408 17.408-17.408zm108.544 0h9.216c10.24 0 17.408 7.168 17.408 17.408v9.216c0 10.24-7.168 17.408-17.408 17.408h-9.216c-10.24 0-17.408-7.168-17.408-17.408v-9.216c0-10.24 7.168-17.408 17.408-17.408zm-314.368-69.632h-9.216c-10.24 0-17.408-7.168-17.408-17.408v-9.216c0-10.24 7.168-17.408 17.408-17.408h9.216c10.24 0 17.408 7.168 17.408 17.408v9.216c1.024 8.192-5.12 17.408-17.408 17.408zm100.352-44.032h9.216c10.24 0 17.408 7.168 17.408 17.408v9.216c0 10.24-7.168 17.408-17.408 17.408h-9.216c-10.24 0-17.408-7.168-17.408-17.408v-9.216c-2.048-10.24 6.144-17.408 17.408-17.408zm305.152 593.92H537.6v32.768c32.768 12.288 55.296 47.104 48.128 86.016-6.144 28.672-29.696 52.224-58.368 58.368-48.128 9.216-90.112-27.648-90.112-73.728 0-32.768 20.48-60.416 49.152-70.656v-32.768H37.888c-14.336 0-25.6-11.264-25.6-25.6V35.328c0-14.336 11.264-25.6 25.6-25.6h949.248c14.336 0 25.6 11.264 25.6 25.6v646.144c-1.024 14.336-12.288 25.6-26.624 25.6zM512 834.048c13.312 0 23.552-10.24 23.552-23.552s-10.24-23.552-23.552-23.552-23.552 10.24-23.552 23.552 10.24 23.552 23.552 23.552zM960.512 61.952H63.488v475.136h898.048V61.952zm0 526.336H63.488v67.584h898.048v-67.584z"/><glyph unicode="" glyph-name="camera" d="M993.28 657.92H745.472v79.872c0 13.312-11.264 24.576-24.576 24.576H305.152c-13.312 0-24.576-11.264-24.576-24.576V657.92H32.768c-13.312 0-24.576-11.264-24.576-24.576v-476.16c0-13.312 11.264-24.576 24.576-24.576H993.28c13.312 0 24.576 11.264 24.576 24.576v476.16c1.024 14.336-10.24 24.576-24.576 24.576zm-24.576-475.136H58.368v425.984h247.808c13.312 0 24.576 11.264 24.576 24.576v79.872H696.32v-79.872c0-13.312 11.264-24.576 24.576-24.576h247.808V182.784zm-455.68 395.264c-95.232 0-173.056-77.824-173.056-173.056S417.792 232.96 513.024 232.96 686.08 310.784 686.08 404.992s-77.824 173.056-173.056 173.056zm0-294.912c-67.584 0-122.88 55.296-122.88 122.88s55.296 122.88 122.88 122.88 122.88-55.296 122.88-122.88-55.296-122.88-122.88-122.88zM145.408 552.448c0-13.573-11.003-24.576-24.576-24.576s-24.576 11.003-24.576 24.576 11.003 24.576 24.576 24.576 24.576-11.003 24.576-24.576z"/><glyph unicode="" glyph-name="car" d="M985.088 596.48h-29.696l-24.576 275.456c-1.024 13.312-12.288 23.552-25.6 23.552H118.784c-13.312 0-24.576-10.24-25.6-23.552L68.608 596.48H39.936c-14.336 0-25.6-11.264-25.6-25.6V176.64c0-14.336 11.264-25.6 25.6-25.6h59.392V27.136c0-14.336 11.264-25.6 25.6-25.6h130.048c14.336 0 25.6 11.264 25.6 25.6V151.04h463.872V27.136c0-14.336 11.264-25.6 25.6-25.6h130.048c14.336 0 25.6 11.264 25.6 25.6V151.04h59.392c14.336 0 25.6 11.264 25.6 25.6v394.24c0 14.336-11.264 25.6-25.6 25.6zM142.336 844.288h739.328l21.504-247.808H120.832l21.504 247.808zm87.04-792.576h-78.848v99.328h78.848V51.712zm645.12 0h-78.848v99.328h78.848V51.712zm84.992 150.528H65.536v343.04h893.952V202.24zm-718.848 51.2c68.608 0 124.928 56.32 124.928 124.928s-56.32 124.928-124.928 124.928-124.928-56.32-124.928-124.928c1.024-69.632 56.32-124.928 124.928-124.928zm0 197.632c40.96 0 73.728-32.768 73.728-73.728s-32.768-73.728-73.728-73.728-73.728 32.768-73.728 73.728c1.024 40.96 33.792 73.728 73.728 73.728zM783.36 253.44c68.608 0 124.928 56.32 124.928 124.928s-56.32 124.928-124.928 124.928-124.928-56.32-124.928-124.928c1.024-69.632 56.32-124.928 124.928-124.928zm0 197.632c40.96 0 73.728-32.768 73.728-73.728s-32.768-73.728-73.728-73.728c-40.96 0-73.728 32.768-73.728 73.728 1.024 40.96 33.792 73.728 73.728 73.728zm-231.424-48.128h-78.848c-14.336 0-25.6-11.264-25.6-25.6 0-14.336 11.264-25.6 25.6-25.6h78.848c14.336 0 25.6 11.264 25.6 25.6 0 14.336-11.264 25.6-25.6 25.6z"/><glyph unicode="" glyph-name="cart-full" d="M269.312 169.472c-51.2 0-93.184-41.984-93.184-93.184s41.984-93.184 93.184-93.184 93.184 41.984 93.184 93.184-41.984 93.184-93.184 93.184zm0-135.168c-23.552 0-41.984 18.432-41.984 41.984s18.432 41.984 41.984 41.984 41.984-18.432 41.984-41.984c0-22.528-18.432-41.984-41.984-41.984zm485.376 135.168c-51.2 0-93.184-41.984-93.184-93.184s41.984-93.184 93.184-93.184 93.184 41.984 93.184 93.184-41.984 93.184-93.184 93.184zm0-135.168c-23.552 0-41.984 18.432-41.984 41.984s18.432 41.984 41.984 41.984 41.984-18.432 41.984-41.984c0-22.528-18.432-41.984-41.984-41.984zM967.68 912.896h-94.208c-10.24 0-19.456-8.192-20.48-18.432L839.68 718.336h-17.408v146.432c0 28.672-22.528 51.2-51.2 51.2h-163.84c-28.672 0-51.2-22.528-51.2-51.2v-47.104c-10.24 4.096-21.504 7.168-32.768 7.168H166.912c-47.104 0-84.992-37.888-84.992-84.992v-21.504H54.272c-16.384 0-28.672-15.36-24.576-30.72l102.4-484.352c2.048-12.288 13.312-20.48 24.576-20.48h675.84c13.312 0 24.576 10.24 25.6 23.552l44.032 655.36h67.584c15.36 0 26.624 13.312 25.6 28.672-2.048 12.288-13.312 22.528-27.648 22.528zm-350.208-48.128h143.36c6.144 0 10.24-4.096 10.24-10.24V727.552h-163.84v126.976c0 6.144 5.12 10.24 10.24 10.24zM133.12 739.84c0 18.432 15.36 33.792 33.792 33.792h356.352c18.432 0 32.768-15.36 32.768-32.768V719.36H133.12v20.48zm675.84-505.856H177.152L86.016 667.136h749.568L808.96 233.984z"/><glyph unicode="" glyph-name="cart" d="M967.68 912.896h-94.208c-10.24 0-19.456-8.192-20.48-18.432L839.68 718.336H54.272c-16.384 0-28.672-15.36-24.576-30.72l102.4-484.352c2.048-12.288 13.312-20.48 24.576-20.48h675.84c13.312 0 24.576 10.24 25.6 23.552l44.032 655.36h67.584c15.36 0 26.624 13.312 25.6 28.672-2.048 12.288-13.312 22.528-27.648 22.528zM808.96 233.984H177.152L86.016 667.136h750.592L808.96 233.984zm-539.648-64.512c-51.2 0-93.184-41.984-93.184-93.184s41.984-93.184 93.184-93.184 93.184 41.984 93.184 93.184c0 51.2-41.984 93.184-93.184 93.184zm0-135.168c-23.552 0-41.984 18.432-41.984 41.984s18.432 41.984 41.984 41.984 41.984-18.432 41.984-41.984c0-22.528-18.432-41.984-41.984-41.984zm485.376 135.168c-51.2 0-93.184-41.984-93.184-93.184s41.984-93.184 93.184-93.184c51.2 0 93.184 41.984 93.184 93.184s-41.984 93.184-93.184 93.184zm0-135.168c-23.552 0-41.984 18.432-41.984 41.984s18.432 41.984 41.984 41.984c23.552 0 41.984-18.432 41.984-41.984 0-22.528-18.432-41.984-41.984-41.984z"/><glyph unicode="" glyph-name="check-box" d="M998.4 709.12H863.232l153.6 153.6c10.24 10.24 10.24 26.624 0 35.84s-26.624 10.24-35.84 0l-189.44-189.44H25.6c-14.336 0-25.6-11.264-25.6-25.6V17.92C0 3.584 11.264-7.68 25.6-7.68h972.8c14.336 0 25.6 11.264 25.6 25.6v665.6c0 14.336-11.264 25.6-25.6 25.6zm-25.6-665.6H51.2v614.4h689.152l-282.624-281.6-89.088 88.064c-10.24 10.24-26.624 10.24-35.84 0s-10.24-26.624 0-36.864l109.568-109.568c8.192-8.192 20.48-8.192 28.672 0l339.968 338.944H972.8V43.52z"/><glyph unicode="" glyph-name="check-mark-circle" d="M512 951.808c-278.528 0-504.832-226.304-504.832-504.832C8.192 168.448 234.496-56.832 512-56.832c278.528 0 504.832 225.28 504.832 503.808S790.528 951.808 512 951.808zm0-957.44c-249.856 0-452.608 202.752-452.608 452.608S262.144 900.608 512 900.608s453.632-203.776 453.632-453.632S761.856-5.632 512-5.632zM708.608 627.2L403.456 322.048l-89.088 89.088c-10.24 10.24-26.624 10.24-35.84 0s-10.24-26.624 0-36.864l109.568-109.568c8.192-8.192 20.48-8.192 28.672 0l327.68 326.656c10.24 10.24 10.24 26.624 0 35.84s-26.624 10.24-35.84 0z"/><glyph unicode="" glyph-name="chevron-down-circle" d="M514.048-56.832c278.528 0 504.832 225.28 504.832 503.808S792.576 951.808 514.048 951.808 9.216 725.504 9.216 446.976C10.24 168.448 236.544-56.832 514.048-56.832zm0 957.44c249.856 0 453.632-203.776 453.632-453.632S763.904-5.632 514.048-5.632 61.44 197.12 61.44 446.976s202.752 453.632 452.608 453.632zM173.056 591.36l326.656-326.656c8.192-8.192 20.48-8.192 28.672 0l327.68 326.656c10.24 10.24 10.24 26.624 0 35.84s-26.624 10.24-35.84 0L515.072 322.048 208.896 628.224c-10.24 10.24-26.624 10.24-35.84 0s-10.24-26.624 0-36.864z"/><glyph unicode="" glyph-name="chevron-down" d="M33.792 692.736c10.24 10.24 26.624 10.24 35.84 0L522.24 240.128l452.608 452.608c10.24 10.24 26.624 10.24 35.84 0 10.24-10.24 10.24-26.624 0-35.84L536.576 181.76c-8.192-8.192-20.48-8.192-28.672 0L33.792 655.872a25.958 25.958 0 0 0 0 36.864z"/><glyph unicode="" glyph-name="chevron-left-circle" d="M9.216 448c0-278.528 225.28-504.832 503.808-504.832S1018.88 168.448 1018.88 448 792.576 951.808 514.048 951.808C234.496 950.784 9.216 725.504 9.216 448zm958.464 0c0-249.856-203.776-453.632-453.632-453.632S60.416 197.12 60.416 448s202.752 452.608 452.608 452.608S967.68 696.832 967.68 448zM658.432 787.968l-327.68-326.656c-8.192-8.192-8.192-20.48 0-28.672l326.656-327.68c10.24-10.24 26.624-10.24 35.84 0s10.24 26.624 0 35.84L388.096 445.952l306.176 306.176c10.24 10.24 10.24 26.624 0 35.84s-25.6 10.24-35.84 0z"/><glyph unicode="" glyph-name="chevron-left" d="M777.216 926.208c10.24-10.24 10.24-26.624 0-35.84L324.608 437.76 777.216-14.848c10.24-10.24 10.24-26.624 0-35.84-10.24-10.24-26.624-10.24-35.84 0L266.24 423.424c-8.192 8.192-8.192 20.48 0 28.672l474.112 474.112a25.958 25.958 0 0 0 36.864 0z"/><glyph unicode="" glyph-name="chevron-right-circle" d="M369.664 788.992c-10.24 10.24-26.624 10.24-35.84 0s-10.24-26.624 0-35.84L637.952 448 332.8 142.848c-10.24-10.24-10.24-26.624 0-35.84s26.624-10.24 35.84 0l327.68 326.656c8.192 8.192 8.192 20.48 0 28.672L369.664 788.992zm144.384 162.816C235.52 951.808 9.216 726.528 9.216 448S235.52-56.832 514.048-56.832 1018.88 169.472 1018.88 448c-1.024 278.528-227.328 503.808-504.832 503.808zm0-957.44C264.192-5.632 60.416 198.144 60.416 448s203.776 452.608 453.632 452.608S966.656 697.856 966.656 448 763.904-5.632 514.048-5.632z"/><glyph unicode="" glyph-name="chevron-right" d="M257.024-40.448c-10.24 10.24-10.24 26.624 0 35.84L709.632 448 257.024 900.608c-10.24 10.24-10.24 26.624 0 35.84 10.24 10.24 26.624 10.24 35.84 0L768 462.336c8.192-8.192 8.192-20.48 0-28.672L293.888-40.448a25.958 25.958 0 0 0-36.864 0z"/><glyph unicode="" glyph-name="chevron-up-circle" d="M514.048 951.808C235.52 951.808 9.216 726.528 9.216 448S235.52-56.832 514.048-56.832 1018.88 169.472 1018.88 448c-1.024 278.528-227.328 503.808-504.832 503.808zm0-957.44C264.192-5.632 60.416 198.144 60.416 448s203.776 452.608 453.632 452.608S966.656 697.856 966.656 448 763.904-5.632 514.048-5.632zM855.04 303.616L528.384 630.272c-8.192 8.192-20.48 8.192-28.672 0l-327.68-326.656c-10.24-10.24-10.24-26.624 0-35.84s26.624-10.24 35.84 0l305.152 305.152L819.2 266.752c10.24-10.24 26.624-10.24 35.84 0s10.24 26.624 0 36.864z"/><glyph unicode="" glyph-name="chevron-up" d="M172.032 303.616c-10.24-10.24-10.24-26.624 0-35.84s26.624-10.24 35.84 0l305.152 305.152L819.2 266.752c10.24-10.24 26.624-10.24 35.84 0s10.24 26.624 0 35.84l-326.656 327.68c-8.192 8.192-20.48 8.192-28.672 0l-327.68-326.656z"/><glyph unicode="" glyph-name="chrome" d="M512 954.88C232.448 954.88 5.12 727.552 5.12 448S232.448-58.88 512-58.88 1018.88 168.448 1018.88 448 791.552 954.88 512 954.88zm0-51.2c173.056 0 323.584-96.256 400.384-238.592l-401.408-14.336c-110.592 0-201.728-91.136-201.728-201.728 0-25.6 5.12-49.152 13.312-71.68L61.44 513.536C93.184 733.696 282.624 903.68 512 903.68zm0-607.232c-82.944 0-151.552 67.584-151.552 151.552 0 82.944 67.584 151.552 151.552 151.552 82.944 0 151.552-67.584 151.552-151.552-1.024-82.944-68.608-151.552-151.552-151.552zM56.32 448v10.24l354.304-185.344c29.696-17.408 64.512-27.648 101.376-27.648 32.768 0 63.488 8.192 91.136 22.528L495.616-7.68C251.904 1.536 56.32 202.24 56.32 448zM550.912-5.632L696.32 364.032c12.288 25.6 18.432 54.272 18.432 83.968 0 62.464-28.672 118.784-73.728 155.648l294.912 10.24c20.48-51.2 31.744-107.52 31.744-166.912 0-236.544-183.296-433.152-416.768-452.608z"/><glyph unicode="" glyph-name="circle-minus" d="M514.048 951.808C235.52 951.808 9.216 726.528 9.216 448S235.52-56.832 514.048-56.832 1018.88 169.472 1018.88 448c-1.024 278.528-227.328 503.808-504.832 503.808zm0-957.44C264.192-5.632 60.416 198.144 60.416 448s203.776 452.608 453.632 452.608S966.656 697.856 966.656 448 763.904-5.632 514.048-5.632zM773.12 473.6H271.36c-14.336 0-25.6-11.264-25.6-25.6s11.264-25.6 25.6-25.6h501.76c14.336 0 25.6 11.264 25.6 25.6s-11.264 25.6-25.6 25.6z"/><glyph unicode="" glyph-name="clipboard" d="M748.544 806.4v38.912c0 11.264-9.216 20.48-20.48 20.48H596.992v23.552c0 33.792-27.648 61.44-61.44 61.44s-61.44-27.648-61.44-61.44v-23.552H344.064c-11.264 0-20.48-9.216-20.48-20.48V806.4h-107.52c-11.264 0-20.48-9.216-20.48-20.48V-38.4c0-11.264 9.216-20.48 20.48-20.48h640c11.264 0 20.48 9.216 20.48 20.48v824.32c0 11.264-9.216 20.48-20.48 20.48h-107.52zm-373.76 7.168h140.288c6.144 0 10.24 4.096 10.24 10.24v64.512c0 6.144 5.12 10.24 10.24 10.24 6.144 0 10.24-5.12 10.24-10.24v-64.512c0-6.144 4.096-10.24 10.24-10.24H696.32v-66.56H374.784v66.56zM825.344-7.68h-578.56V755.2h76.8v-38.912c0-11.264 9.216-20.48 20.48-20.48h384c11.264 0 20.48 9.216 20.48 20.48V755.2h76.8V-7.68z"/><glyph unicode="" glyph-name="close" d="M918.528 854.528c-10.24 10.24-26.624 10.24-35.84 0L512 483.84 142.336 854.528c-10.24 10.24-26.624 10.24-35.84 0-10.24-10.24-10.24-26.624 0-35.84L476.16 448 105.472 78.336c-10.24-10.24-10.24-26.624 0-35.84 10.24-10.24 26.624-10.24 35.84 0L512 412.16 881.664 42.496c10.24-10.24 26.624-10.24 35.84 0 10.24 10.24 10.24 26.624 0 35.84L547.84 448l369.664 369.664c10.24 10.24 10.24 26.624 1.024 36.864z"/><glyph unicode="" glyph-name="cloud-check" d="M265.216 84.48c-38.912 0-79.872 10.24-117.76 28.672C59.392 159.232 6.144 247.296 6.144 345.6c0 84.992 44.032 164.864 116.736 214.016 65.536 45.056 143.36 57.344 216.064 33.792C358.4 718.336 464.896 811.52 595.968 811.52c112.64 0 214.016-73.728 246.784-179.2 4.096-10.24 7.168-27.648 9.216-41.984 13.312-5.12 26.624-12.288 40.96-21.504 80.896-48.128 128-132.096 126.976-223.232 0-88.064-45.056-172.032-118.784-219.136-44.032-26.624-92.16-40.96-141.312-40.96L265.216 84.48zm0 470.016c-39.936 0-78.848-12.288-113.664-36.864C92.16 477.696 57.344 413.184 57.344 345.6c0-78.848 43.008-150.528 113.664-186.368 30.72-15.36 63.488-22.528 95.232-22.528l494.592 1.024c38.912 0 78.848 11.264 113.664 32.768 58.368 36.864 94.208 104.448 94.208 176.128 1.024 73.728-37.888 140.288-103.424 180.224-16.384 11.264-30.72 17.408-44.032 20.48l-19.456 5.12v17.408c-1.024 7.168-4.096 34.816-8.192 45.056v1.024c-25.6 84.992-107.52 143.36-197.632 143.36-112.64 0-205.824-91.136-208.896-202.752l-1.024-35.84-48.128 18.432c-23.552 10.24-48.128 15.36-72.704 15.36zM708.608 627.2L403.456 322.048l-89.088 89.088c-10.24 10.24-26.624 10.24-35.84 0s-10.24-26.624 0-36.864l109.568-109.568c8.192-8.192 20.48-8.192 28.672 0l327.68 326.656c10.24 10.24 10.24 26.624 0 35.84s-26.624 10.24-35.84 0z"/><glyph unicode="" glyph-name="cloud-download" d="M891.904 699.904c-14.336 9.216-27.648 16.384-40.96 21.504-2.048 14.336-5.12 31.744-9.216 41.984-32.768 105.472-134.144 179.2-246.784 179.2-131.072 0-237.568-93.184-257.024-218.112-72.704 23.552-150.528 11.264-216.064-33.792C49.152 641.536 5.12 561.664 5.12 476.672c0-98.304 53.248-186.368 141.312-232.448 37.888-18.432 78.848-28.672 117.76-28.672h221.184V45.568l-77.824 78.848c-10.24 10.24-26.624 10.24-35.84 0-10.24-10.24-10.24-26.624 0-35.84L504.832-43.52c4.096-4.096 10.24-4.096 14.336 0l133.12 132.096c10.24 10.24 10.24 26.624 0 35.84-10.24 10.24-26.624 10.24-35.84 0l-77.824-78.848v171.008h220.16c49.152 0 97.28 14.336 141.312 40.96 73.728 47.104 118.784 131.072 118.784 219.136 1.024 91.136-46.08 175.104-126.976 223.232zm-18.432-398.336C838.656 280.064 798.72 268.8 759.808 268.8H538.624v335.872c0 14.336-11.264 25.6-25.6 25.6-16.384 0-27.648-11.264-27.648-25.6V267.776h-220.16c-31.744 0-64.512 7.168-95.232 22.528C99.328 326.144 56.32 397.824 56.32 476.672c0 67.584 34.816 132.096 94.208 172.032 34.816 24.576 73.728 36.864 113.664 36.864 24.576 0 49.152-5.12 72.704-15.36l48.128-18.432 1.024 35.84c3.072 111.616 96.256 202.752 208.896 202.752 90.112 0 172.032-58.368 197.632-143.36v-1.024c4.096-10.24 7.168-37.888 8.192-45.056V683.52l19.456-5.12c13.312-3.072 27.648-9.216 44.032-20.48 65.536-39.936 104.448-106.496 103.424-180.224 0-71.68-35.84-139.264-94.208-176.128z"/><glyph unicode="" glyph-name="cloud-sync" d="M891.904 568.832c-14.336 9.216-27.648 16.384-40.96 21.504-2.048 13.312-5.12 30.72-9.216 41.984-32.768 105.472-134.144 179.2-246.784 179.2-130.048 0-236.544-93.184-257.024-218.112-72.704 23.552-150.528 11.264-216.064-33.792C48.128 510.464 5.12 430.592 5.12 345.6c0-98.304 54.272-186.368 141.312-232.448C185.344 94.72 225.28 84.48 264.192 84.48l494.592 1.024c49.152 0 97.28 14.336 141.312 40.96C972.8 173.568 1018.88 257.536 1018.88 345.6c1.024 91.136-47.104 175.104-126.976 223.232zm-18.432-399.36c-34.816-21.504-74.752-32.768-113.664-32.768l-494.592-1.024c-30.72 0-64.512 8.192-95.232 22.528C100.352 195.072 56.32 265.728 56.32 344.576c0 67.584 34.816 132.096 94.208 172.032 34.816 24.576 74.752 36.864 113.664 36.864 24.576 0 49.152-5.12 72.704-14.336l48.128-18.432 1.024 35.84c3.072 111.616 96.256 202.752 208.896 202.752 90.112 0 172.032-59.392 197.632-143.36v-1.024c4.096-10.24 7.168-37.888 8.192-45.056v-18.432l19.456-5.12c13.312-4.096 27.648-10.24 44.032-20.48C929.792 486.912 968.704 419.328 967.68 345.6c0-70.656-36.864-138.24-94.208-176.128zm-337.92 269.312c-10.24 10.24-26.624 10.24-35.84 0l-33.792-33.792c13.312 70.656 75.776 124.928 150.528 124.928 36.864 0 71.68-13.312 99.328-35.84 9.216-8.192 23.552-8.192 33.792 1.024 11.264 10.24 11.264 28.672 0 38.912-36.864 30.72-82.944 48.128-132.096 48.128-102.4 0-187.392-75.776-201.728-174.08l-30.72 30.72c-10.24 10.24-26.624 10.24-35.84 0-10.24-10.24-10.24-26.624 0-35.84l79.872-79.872c8.192-8.192 20.48-8.192 28.672 0l79.872 79.872c8.192 10.24 8.192 25.6-2.048 35.84zm274.432 3.072c-8.192 8.192-20.48 8.192-28.672 0l-79.872-79.872c-10.24-10.24-10.24-26.624 0-35.84s26.624-10.24 35.84 0l29.696 29.696c-4.096-22.528-10.24-44.032-19.456-58.368-27.648-46.08-76.8-72.704-131.072-72.704-43.008 0-82.944 17.408-111.616 49.152-8.192 9.216-22.528 10.24-32.768 3.072-12.288-9.216-14.336-26.624-4.096-37.888 37.888-40.96 92.16-64.512 149.504-64.512 71.68 0 137.216 36.864 174.08 97.28 14.336 23.552 24.576 56.32 28.672 90.112l33.792-33.792c10.24-10.24 26.624-10.24 35.84 0s10.24 26.624 0 35.84l-79.872 77.824z"/><glyph unicode="" glyph-name="cloud-upload" d="M892.928 694.784c-14.336 9.216-27.648 16.384-40.96 21.504-2.048 14.336-5.12 31.744-9.216 41.984-32.768 105.472-134.144 179.2-246.784 179.2-131.072 0-237.568-93.184-257.024-218.112-72.704 23.552-150.528 11.264-216.064-33.792C50.176 636.416 6.144 556.544 6.144 471.552c0-98.304 53.248-186.368 141.312-232.448 37.888-18.432 78.848-28.672 117.76-28.672H486.4V-15.872c0-14.336 11.264-25.6 25.6-25.6 16.384 0 27.648 11.264 27.648 25.6v227.328h220.16c49.152 0 97.28 14.336 141.312 40.96 73.728 47.104 118.784 131.072 118.784 219.136 1.024 91.136-46.08 175.104-126.976 223.232zm-18.432-398.336c-34.816-21.504-74.752-32.768-113.664-32.768H539.648v269.312l77.824-78.848c10.24-10.24 26.624-10.24 35.84 0 10.24 10.24 10.24 26.624 0 35.84L520.192 622.08c-4.096 4.096-10.24 4.096-14.336 0l-133.12-132.096c-10.24-10.24-10.24-26.624 0-35.84 10.24-10.24 26.624-10.24 35.84 0l77.824 78.848V262.656H266.24c-31.744 0-64.512 7.168-95.232 22.528-70.656 35.84-113.664 107.52-113.664 186.368 0 67.584 34.816 132.096 94.208 172.032 34.816 24.576 73.728 36.864 113.664 36.864 24.576 0 49.152-5.12 72.704-15.36l48.128-18.432 1.024 35.84c3.072 111.616 96.256 202.752 208.896 202.752 90.112 0 172.032-58.368 197.632-143.36v-1.024c4.096-10.24 7.168-37.888 8.192-45.056V678.4l19.456-5.12c13.312-3.072 27.648-9.216 44.032-20.48 65.536-39.936 104.448-106.496 103.424-180.224 0-71.68-35.84-139.264-94.208-176.128z"/><glyph unicode="" glyph-name="cloud" d="M265.216 84.48c-38.912 0-79.872 10.24-117.76 28.672C59.392 159.232 6.144 247.296 6.144 345.6c0 84.992 44.032 164.864 116.736 214.016 65.536 45.056 143.36 57.344 216.064 33.792C358.4 718.336 464.896 811.52 595.968 811.52c112.64 0 214.016-73.728 246.784-179.2 4.096-10.24 7.168-27.648 9.216-41.984 13.312-5.12 26.624-12.288 40.96-21.504 80.896-48.128 128-132.096 126.976-223.232 0-88.064-45.056-172.032-118.784-219.136-44.032-26.624-92.16-40.96-141.312-40.96L265.216 84.48zm0 470.016c-39.936 0-78.848-12.288-113.664-36.864C92.16 477.696 57.344 413.184 57.344 345.6c0-78.848 43.008-150.528 113.664-186.368 30.72-15.36 63.488-22.528 95.232-22.528l494.592 1.024c38.912 0 78.848 11.264 113.664 32.768 58.368 36.864 94.208 104.448 94.208 176.128 1.024 73.728-37.888 140.288-103.424 180.224-16.384 11.264-30.72 17.408-44.032 20.48l-19.456 5.12v17.408c-1.024 7.168-4.096 34.816-8.192 45.056v1.024c-25.6 84.992-107.52 143.36-197.632 143.36-112.64 0-205.824-91.136-208.896-202.752l-1.024-35.84-48.128 18.432c-23.552 10.24-48.128 15.36-72.704 15.36z"/><glyph unicode="" glyph-name="code" d="M76.8 448l241.664 241.664c10.24 10.24 10.24 26.624 0 35.84-10.24 10.24-26.624 10.24-35.84 0L22.528 466.432c-10.24-10.24-10.24-26.624 0-35.84l260.096-260.096c10.24-10.24 26.624-10.24 35.84 0 10.24 10.24 10.24 26.624 0 35.84L76.8 448zm924.672 18.432L742.4 726.528c-10.24 10.24-26.624 10.24-35.84 0-10.24-10.24-10.24-26.624 0-35.84L947.2 448 705.536 206.336c-10.24-10.24-10.24-26.624 0-35.84s26.624-10.24 35.84 0l260.096 260.096c10.24 9.216 10.24 25.6 0 35.84zM626.688 787.968c-13.312 4.096-27.648-3.072-32.768-16.384L380.928 140.8c-4.096-13.312 3.072-27.648 16.384-32.768 13.312-4.096 27.648 3.072 32.768 16.384L643.072 755.2c4.096 14.336-3.072 28.672-16.384 32.768z"/><glyph unicode="" glyph-name="coffee-cup" d="M832.512 273.92c10.24-2.048 19.456-3.072 29.696-3.072 82.944 0 149.504 75.776 149.504 168.96s-67.584 168.96-149.504 168.96c-4.096 0-8.192 0-13.312-1.024 0 12.288-10.24 22.528-22.528 22.528h-199.68c21.504 5.12 41.984 14.336 60.416 25.6 5.12 3.072 14.336 8.192 19.456 20.48 3.072 7.168 4.096 13.312 4.096 17.408 1.024 15.36 3.072 48.128-20.48 67.584-15.36 13.312-33.792 14.336-48.128 15.36H640c-24.576 2.048-49.152 7.168-71.68 16.384-4.096 1.024-13.312 5.12-16.384 9.216s-2.048 13.312 3.072 19.456c6.144 8.192 17.408 14.336 33.792 18.432 8.192 2.048 17.408 4.096 26.624 5.12 12.288 1.024 21.504 12.288 21.504 24.576v1.024c0 15.36-13.312 27.648-28.672 25.6-11.264-1.024-21.504-3.072-32.768-6.144-26.624-7.168-47.104-19.456-59.392-35.84-19.456-24.576-21.504-59.392-3.072-81.92 11.264-15.36 27.648-21.504 41.984-26.624 26.624-10.24 54.272-15.36 82.944-17.408H640c6.144 0 15.36-1.024 18.432-3.072 1.024-1.024 4.096-6.144 2.048-23.552-18.432-11.264-38.912-18.432-60.416-21.504l-6.144-1.024c-12.288-2.048-27.648-4.096-41.984-12.288-12.288-7.168-21.504-19.456-24.576-32.768H310.272c21.504 5.12 41.984 14.336 60.416 25.6 5.12 3.072 14.336 8.192 19.456 20.48 3.072 7.168 4.096 13.312 4.096 17.408 1.024 15.36 3.072 48.128-20.48 67.584-15.36 13.312-33.792 14.336-48.128 15.36h-2.048c-24.576 2.048-49.152 7.168-71.68 16.384-4.096 1.024-13.312 5.12-16.384 9.216s-2.048 13.312 3.072 19.456c6.144 8.192 17.408 14.336 33.792 18.432 8.192 2.048 17.408 4.096 26.624 5.12 12.288 1.024 21.504 12.288 21.504 24.576v1.024c0 15.36-13.312 27.648-28.672 25.6-11.264-1.024-21.504-3.072-32.768-6.144-26.624-7.168-47.104-19.456-59.392-35.84-19.456-24.576-21.504-59.392-3.072-81.92 11.264-15.36 28.672-21.504 41.984-26.624 26.624-9.216 54.272-15.36 82.944-17.408h2.048c6.144 0 15.36-1.024 18.432-3.072 1.024-1.024 3.072-6.144 2.048-23.552-18.432-11.264-38.912-18.432-60.416-21.504l-6.144-1.024c-12.288-2.048-27.648-4.096-41.984-12.288-12.288-7.168-21.504-19.456-24.576-32.768H100.352c-12.288 0-22.528-10.24-22.528-22.528v-220.16c0-143.36 78.848-268.288 194.56-335.872H44.032c-14.336 0-25.6-11.264-25.6-25.6s11.264-25.6 25.6-25.6h829.44c14.336 0 25.6 11.264 25.6 25.6s-11.264 25.6-25.6 25.6H655.36C739.328 99.84 803.84 179.712 832.512 273.92zm17.408 113.664v168.96c4.096 1.024 8.192 1.024 13.312 1.024 54.272 0 98.304-53.248 98.304-117.76s-44.032-117.76-98.304-117.76c-6.144 0-12.288 1.024-18.432 2.048 3.072 20.48 5.12 40.96 5.12 63.488zM462.848 51.712c-185.344 0-335.872 150.528-335.872 335.872v192.512h670.72V387.584C798.72 202.24 648.192 51.712 462.848 51.712z"/><glyph unicode="" glyph-name="cog" d="M1013.76 530.944c-7.168 22.528-26.624 41.984-55.296 41.984h-65.536c-6.144 19.456-14.336 38.912-23.552 57.344l50.176 50.176c10.24 10.24 15.36 23.552 15.36 36.864s-5.12 26.624-15.36 36.864l-102.4 102.4c-20.48 20.48-53.248 20.48-74.752 0l-51.2-51.2c-16.384 8.192-34.816 15.36-57.344 22.528v67.584c0 31.744-25.6 57.344-57.344 57.344H445.44c-31.744 0-57.344-25.6-57.344-57.344v-67.584c-19.456-6.144-37.888-14.336-56.32-23.552l-51.2 52.224c-20.48 20.48-53.248 20.48-73.728 0l-102.4-102.4c-10.24-10.24-15.36-23.552-15.36-36.864s5.12-26.624 15.36-36.864l49.152-49.152c-9.216-18.432-17.408-37.888-23.552-57.344H64.512c-31.744 0-57.344-25.6-57.344-57.344v-133.12c0-31.744 25.6-57.344 57.344-57.344h66.56c6.144-19.456 14.336-38.912 23.552-58.368L104.448 217.6c-10.24-10.24-15.36-23.552-15.36-36.864 0-15.36 6.144-28.672 16.384-37.888L206.848 41.472c19.456-19.456 52.224-19.456 72.704-1.024l50.176 50.176c17.408-9.216 37.888-18.432 59.392-24.576V2.56c0-31.744 25.6-57.344 57.344-57.344h133.12c31.744 0 57.344 25.6 57.344 57.344v63.488c23.552 8.192 43.008 15.36 59.392 23.552l49.152-49.152c10.24-10.24 23.552-15.36 36.864-15.36s26.624 5.12 36.864 15.36l102.4 102.4c10.24 10.24 15.36 23.552 15.36 36.864s-5.12 26.624-15.36 36.864l-50.176 50.176c9.216 17.408 17.408 36.864 23.552 58.368h65.536c31.744 0 57.344 25.6 57.344 57.344v143.36l-4.096 5.12zm-46.08-148.48c0-4.096-3.072-6.144-6.144-6.144h-95.232l-14.336-14.336-2.048-7.168c-6.144-29.696-19.456-55.296-31.744-78.848l-3.072-6.144v-6.144c0-8.192 3.072-15.36 8.192-21.504l61.44-61.44c1.024-1.024 1.024-1.024 0-2.048l-102.4-102.4h-2.048l-69.632 69.632h-10.24c-5.12 0-10.24-1.024-16.384-4.096-20.48-11.264-45.056-21.504-77.824-31.744-7.168-2.048-12.288-6.144-14.336-8.192l-7.168-7.168V2.56c0-4.096-3.072-6.144-6.144-6.144H445.44c-4.096 0-6.144 3.072-6.144 6.144v92.16l-14.336 14.336-7.168 2.048c-24.576 5.12-47.104 15.36-67.584 25.6v2.048l-15.36 6.144c-10.24 4.096-21.504 2.048-28.672-6.144l-61.44-61.44c-1.024 0-2.048-1.024-3.072-1.024L138.24 179.712s0 1.024 1.024 1.024l70.656 70.656v10.24c0 6.144-2.048 11.264-5.12 16.384-13.312 25.6-23.552 51.2-31.744 78.848l-2.048 6.144-13.312 13.312H62.464c-4.096 0-6.144 3.072-6.144 6.144v133.12c0 4.096 3.072 6.144 6.144 6.144h95.232l13.312 13.312 2.048 7.168c6.144 21.504 14.336 45.056 25.6 66.56h3.072l6.144 15.36c4.096 10.24 2.048 21.504-6.144 28.672l-63.488 63.488v2.048l102.4 102.4c1.024 1.024 1.024 1.024 2.048 0l71.68-72.704h10.24c6.144 0 12.288 2.048 16.384 5.12 17.408 10.24 44.032 22.528 74.752 30.72l7.168 2.048 13.312 13.312v96.256c0 4.096 3.072 6.144 6.144 6.144H573.44c4.096 0 6.144-3.072 6.144-6.144v-96.256l13.312-13.312 6.144-2.048c33.792-10.24 58.368-20.48 78.848-31.744l6.144-3.072h7.168c8.192 0 16.384 3.072 21.504 8.192l63.488 63.488c1.024 1.024 1.024 1.024 2.048 0l102.4-102.4v-2.048l-70.656-70.656v-10.24c0-5.12 1.024-10.24 4.096-15.36l1.024-1.024c10.24-17.408 23.552-44.032 31.744-76.8l2.048-7.168 13.312-13.312h95.232c3.072 0 6.144-5.12 7.168-8.192l1.024-8.192 1.024-1.024V382.464zM526.336 652.8h-13.312c-56.32 0-107.52-21.504-146.432-59.392-41.984-40.96-64.512-99.328-60.416-158.72 7.168-101.376 91.136-186.368 192.512-192.512h14.336c54.272 0 106.496 21.504 144.384 60.416 40.96 43.008 63.488 100.352 60.416 158.72-5.12 100.352-90.112 185.344-191.488 191.488zm95.232-315.392c-31.744-31.744-74.752-48.128-118.784-45.056-75.776 5.12-140.288 68.608-145.408 145.408-3.072 45.056 13.312 88.064 45.056 118.784 29.696 29.696 67.584 45.056 110.592 45.056h11.264c75.776-5.12 139.264-68.608 144.384-144.384 1.024-43.008-15.36-87.04-47.104-119.808z"/><glyph unicode="" glyph-name="color-pallet" d="M862.208 226.816h-1.024c-15.36 3.072-44.032 13.312-54.272 23.552-16.384 16.384-24.576 37.888-24.576 61.44s9.216 46.08 24.576 61.44l70.656 70.656c109.568 109.568 109.568 279.552 0 389.12-76.8 76.8-182.272 118.784-296.96 118.784-133.12 0-267.264-57.344-367.616-157.696-95.232-95.232-147.456-220.16-147.456-353.28 0-134.144 52.224-259.072 146.432-352.256C307.2-6.656 432.128-58.88 565.248-58.88S823.296-5.632 917.504 89.6c14.336 14.336 22.528 34.816 22.528 56.32s-8.192 41.984-22.528 56.32c-9.216 9.216-20.48 15.36-55.296 24.576zm17.408-99.328C795.648 41.472 684.032-5.632 564.224-5.632c-118.784 0-231.424 47.104-316.416 132.096-84.992 83.968-131.072 195.584-131.072 315.392 0 118.784 47.104 231.424 132.096 316.416 91.136 91.136 211.968 143.36 331.776 143.36 101.376 0 193.536-36.864 260.096-103.424 89.088-89.088 89.088-227.328 0-316.416l-70.656-70.656c-25.6-25.6-39.936-60.416-39.936-98.304s14.336-72.704 39.936-98.304c22.528-22.528 64.512-34.816 80.896-37.888 21.504-5.12 28.672-8.192 30.72-9.216 4.096-5.12 7.168-11.264 7.168-19.456-1.024-8.192-4.096-15.36-9.216-20.48zM502.784 846.336c-48.128 0-88.064-39.936-88.064-88.064s39.936-88.064 88.064-88.064c48.128 0 88.064 39.936 88.064 88.064 0 49.152-39.936 88.064-88.064 88.064zm0-124.928c-20.48 0-36.864 16.384-36.864 36.864s16.384 36.864 36.864 36.864 36.864-16.384 36.864-36.864c0-20.48-16.384-36.864-36.864-36.864zm271.36-2.048c0 40.96-33.792 74.752-74.752 74.752S624.64 760.32 624.64 719.36s33.792-74.752 74.752-74.752c41.984 0 74.752 33.792 74.752 74.752zm-74.752-23.552c-13.312 0-23.552 10.24-23.552 23.552s10.24 23.552 23.552 23.552 23.552-10.24 23.552-23.552c0-12.288-10.24-23.552-23.552-23.552zm137.216-134.144c0 34.816-28.672 63.488-63.488 63.488s-63.488-28.672-63.488-63.488 28.672-63.488 63.488-63.488 63.488 28.672 63.488 63.488zm-75.776 0c0 7.168 5.12 12.288 12.288 12.288s12.288-5.12 12.288-12.288-5.12-12.288-12.288-12.288-12.288 6.144-12.288 12.288z"/><glyph unicode="" glyph-name="comment-reply-alt" d="M1016.832 760.32c-3.072 56.32-48.128 100.352-102.4 100.352H107.52c-56.32 0-102.4-47.104-102.4-104.448V323.072c0-56.32 47.104-104.448 103.424-104.448h23.552V74.24c0-15.36 8.192-28.672 22.528-34.816 6.144-3.072 11.264-4.096 17.408-4.096 10.24 0 19.456 4.096 26.624 11.264l177.152 173.056h178.176c1.024-2.048 3.072-4.096 5.12-6.144C587.776 183.808 686.08 92.672 690.176 89.6c9.216-8.192 21.504-13.312 33.792-13.312 27.648 0 49.152 22.528 49.152 50.176v29.696c91.136-6.144 138.24-34.816 141.312-46.08 0-18.432 14.336-32.768 32.768-33.792h1.024c18.432 0 33.792 15.36 33.792 33.792v5.12c-1.024 39.936-13.312 77.824-33.792 110.592 39.936 14.336 70.656 54.272 70.656 99.328v435.2h-2.048zM748.544 207.36h-25.6v-78.848c-12.288 11.264-61.44 56.32-96.256 90.112-11.264 10.24-20.48 19.456-27.648 26.624 6.144 6.144 15.36 14.336 24.576 23.552 35.84 33.792 87.04 81.92 99.328 93.184V284.16l24.576-1.024c24.576-1.024 48.128-6.144 69.632-14.336 27.648-11.264 52.224-28.672 71.68-50.176 12.288-14.336 22.528-30.72 30.72-48.128-39.936 22.528-100.352 35.84-171.008 36.864zm217.088 115.712c0-28.672-23.552-53.248-51.2-53.248h-4.096c-35.84 33.792-83.968 57.344-137.216 63.488v32.768c0 27.648-22.528 50.176-49.152 50.176-12.288 0-24.576-5.12-33.792-13.312-4.096-4.096-102.4-94.208-131.072-123.904-3.072-3.072-5.12-6.144-7.168-9.216H353.28L182.272 102.912v166.912H107.52c-27.648 0-52.224 24.576-52.224 53.248v433.152c0 28.672 23.552 53.248 52.224 53.248h806.912c27.648 0 49.152-22.528 51.2-51.2v-435.2zm-199.68 398.336h-517.12c-14.336 0-25.6-11.264-25.6-25.6s11.264-25.6 25.6-25.6h517.12c14.336 0 25.6 11.264 25.6 25.6s-10.24 25.6-25.6 25.6zm0-97.28h-517.12c-14.336 0-25.6-11.264-25.6-25.6s11.264-25.6 25.6-25.6h517.12c14.336 0 25.6 11.264 25.6 25.6s-10.24 25.6-25.6 25.6zm0-97.28h-517.12c-14.336 0-25.6-11.264-25.6-25.6s11.264-25.6 25.6-25.6h517.12c14.336 0 25.6 11.264 25.6 25.6s-10.24 25.6-25.6 25.6zm-212.992-97.28H248.832c-14.336 0-25.6-11.264-25.6-25.6s11.264-25.6 25.6-25.6H552.96c14.336 0 25.6 11.264 25.6 25.6s-12.288 25.6-25.6 25.6z"/></font>
</defs>
</svg>
